<svg width="1920" height="1080" viewBox="0 0 1920 1080" fill="none" xmlns="http://www.w3.org/2000/svg">
<g opacity="0.46" clip-path="url(#clip0)">
<path d="M1687.31 21.2876C1687.31 22.2356 1687.59 23.1624 1688.12 23.9507C1688.64 24.7389 1689.39 25.3533 1690.27 25.7161C1691.14 26.0789 1692.1 26.1737 1693.03 25.9888C1693.96 25.8038 1694.82 25.3473 1695.49 24.6769C1696.16 24.0066 1696.61 23.1526 1696.8 22.2228C1696.98 21.293 1696.89 20.3293 1696.53 19.4535C1696.16 18.5777 1695.55 17.829 1694.76 17.3023C1693.97 16.7756 1693.05 16.4946 1692.1 16.4946C1691.47 16.491 1690.84 16.6125 1690.26 16.8521C1689.68 17.0917 1689.15 17.4446 1688.7 17.8904C1688.26 18.3362 1687.91 18.866 1687.67 19.4492C1687.43 20.0323 1687.3 20.6572 1687.31 21.2876Z" fill="white"/>
<path d="M1339.42 7.74771C1339.42 8.69686 1339.7 9.62476 1340.23 10.4136C1340.76 11.2024 1341.51 11.8167 1342.38 12.1786C1343.26 12.5406 1344.23 12.6339 1345.16 12.4467C1346.09 12.2596 1346.94 11.8005 1347.61 11.1274C1348.28 10.4544 1348.73 9.59775 1348.91 8.66619C1349.1 7.73463 1349 6.77007 1348.63 5.89472C1348.26 5.01937 1347.64 4.27259 1346.85 3.74918C1346.06 3.22577 1345.13 2.9493 1344.18 2.95467C1343.56 2.95466 1342.94 3.07873 1342.36 3.31994C1341.78 3.56115 1341.25 3.91463 1340.81 4.36007C1340.36 4.80551 1340.01 5.33417 1339.78 5.91555C1339.54 6.49693 1339.42 7.11955 1339.42 7.74771Z" fill="white"/>
<path d="M1777.52 89.8813C1777.52 90.359 1777.65 90.8278 1777.91 91.2276C1778.18 91.6275 1778.55 91.9405 1778.99 92.1271C1779.43 92.3137 1779.91 92.3653 1780.38 92.2754C1780.85 92.1855 1781.28 91.9581 1781.62 91.6222C1781.96 91.2862 1782.2 90.8569 1782.29 90.3887C1782.39 89.9204 1782.34 89.4343 1782.16 88.9924C1781.98 88.5504 1781.67 88.1725 1781.27 87.9064C1780.87 87.6404 1780.41 87.4982 1779.93 87.4982C1779.62 87.4946 1779.3 87.5536 1779.01 87.6717C1778.72 87.7899 1778.45 87.965 1778.23 88.1866C1778 88.4082 1777.83 88.6722 1777.71 88.9631C1777.58 89.254 1777.52 89.566 1777.52 89.8813Z" fill="white"/>
<path d="M1731.1 119.371C1730.37 119.371 1729.78 118.777 1729.78 118.044C1729.78 117.312 1730.37 116.718 1731.1 116.718C1731.83 116.718 1732.43 117.312 1732.43 118.044C1732.43 118.777 1731.83 119.371 1731.1 119.371Z" fill="white"/>
<path d="M1658.35 75.2855C1657.61 75.2855 1657.02 74.6914 1657.02 73.9585C1657.02 73.2257 1657.61 72.6316 1658.35 72.6316C1659.08 72.6316 1659.67 73.2257 1659.67 73.9585C1659.67 74.6914 1659.08 75.2855 1658.35 75.2855Z" fill="white"/>
<path d="M1688.42 104.83C1687.69 104.83 1687.09 104.236 1687.09 103.503C1687.09 102.77 1687.69 102.176 1688.42 102.176C1689.15 102.176 1689.74 102.77 1689.74 103.503C1689.74 104.236 1689.15 104.83 1688.42 104.83Z" fill="white"/>
<path d="M1704.93 127.658C1704.2 127.658 1703.6 127.064 1703.6 126.331C1703.6 125.598 1704.2 125.004 1704.93 125.004C1705.66 125.004 1706.26 125.598 1706.26 126.331C1706.26 127.064 1705.66 127.658 1704.93 127.658Z" fill="white"/>
<path d="M1703.33 90.5855C1702.6 90.5855 1702.01 89.9914 1702.01 89.2586C1702.01 88.5257 1702.6 87.9316 1703.33 87.9316C1704.06 87.9316 1704.66 88.5257 1704.66 89.2586C1704.66 89.9914 1704.06 90.5855 1703.33 90.5855Z" fill="white"/>
<path d="M1841.91 177.133C1840.6 177.133 1839.53 176.066 1839.53 174.75C1839.53 173.434 1840.6 172.367 1841.91 172.367C1843.23 172.367 1844.3 173.434 1844.3 174.75C1844.3 176.066 1843.23 177.133 1841.91 177.133Z" fill="white"/>
<path d="M1828.06 346.248C1828.06 347.201 1828.34 348.133 1828.87 348.924C1829.41 349.715 1830.16 350.329 1831.05 350.687C1831.93 351.046 1832.9 351.133 1833.83 350.936C1834.76 350.74 1835.62 350.27 1836.28 349.586C1836.95 348.902 1837.39 348.036 1837.56 347.097C1837.73 346.158 1837.62 345.191 1837.23 344.318C1836.85 343.444 1836.21 342.706 1835.41 342.196C1834.6 341.686 1833.66 341.428 1832.71 341.455C1831.46 341.483 1830.27 342.001 1829.4 342.898C1828.53 343.794 1828.05 344.997 1828.06 346.248Z" fill="white"/>
<path d="M1864.3 597.063C1864.3 598.012 1864.58 598.94 1865.11 599.729C1865.63 600.517 1866.38 601.132 1867.26 601.494C1868.14 601.856 1869.1 601.949 1870.03 601.762C1870.96 601.575 1871.82 601.115 1872.49 600.442C1873.15 599.769 1873.61 598.913 1873.79 597.981C1873.97 597.05 1873.87 596.085 1873.51 595.21C1873.14 594.334 1872.52 593.588 1871.73 593.064C1870.94 592.541 1870.01 592.264 1869.06 592.27C1868.43 592.27 1867.81 592.394 1867.23 592.635C1866.65 592.876 1866.13 593.23 1865.68 593.675C1865.24 594.121 1864.89 594.649 1864.65 595.23C1864.41 595.812 1864.29 596.435 1864.3 597.063Z" fill="white"/>
<path d="M1482.22 229.208C1482.22 230.157 1482.5 231.087 1483.02 231.878C1483.54 232.67 1484.29 233.289 1485.16 233.656C1486.04 234.023 1487 234.121 1487.93 233.939C1488.86 233.758 1489.72 233.303 1490.39 232.634C1491.07 231.965 1491.52 231.111 1491.71 230.18C1491.9 229.25 1491.81 228.284 1491.44 227.407C1491.08 226.53 1490.47 225.78 1489.68 225.252C1488.89 224.724 1487.96 224.442 1487.02 224.442C1485.75 224.442 1484.53 224.943 1483.64 225.836C1482.74 226.729 1482.23 227.941 1482.22 229.208Z" fill="white"/>
<g style="mix-blend-mode:soft-light" opacity="0.8">
<g style="mix-blend-mode:soft-light" opacity="0.28">
<path d="M1488.42 228.775L1486.47 171.446L1485.31 228.368L1485.72 292.304L1488.42 228.775Z" fill="white"/>
</g>
<g style="mix-blend-mode:soft-light" opacity="0.28">
<path d="M1486.47 227.61L1429.17 229.56L1486.1 230.697L1549.97 230.318L1486.47 227.61Z" fill="white"/>
</g>
<g style="mix-blend-mode:soft-light" opacity="0.57">
<path d="M1487.85 227.99L1455.89 200.693L1486.12 229.452L1520.88 260.838L1487.85 227.99Z" fill="white"/>
</g>
<g style="mix-blend-mode:soft-light" opacity="0.57">
<path d="M1486.28 228.45L1459 260.431L1487.77 230.183L1519.12 195.412L1486.28 228.45Z" fill="white"/>
</g>
</g>
<path d="M1163.43 99.2239C1163.43 100.172 1163.71 101.099 1164.24 101.887C1164.77 102.675 1165.52 103.289 1166.39 103.652C1167.27 104.015 1168.23 104.11 1169.16 103.925C1170.09 103.74 1170.94 103.284 1171.61 102.613C1172.28 101.943 1172.74 101.089 1172.92 100.159C1173.11 99.2293 1173.01 98.2654 1172.65 97.3896C1172.29 96.5137 1171.67 95.7652 1170.89 95.2386C1170.1 94.7119 1169.17 94.4307 1168.22 94.4307C1166.95 94.4307 1165.74 94.9357 1164.84 95.8346C1163.94 96.7335 1163.43 97.9526 1163.43 99.2239Z" fill="white"/>
<path d="M1580.37 109.406C1579.05 109.406 1577.99 108.339 1577.99 107.023C1577.99 105.707 1579.05 104.64 1580.37 104.64C1581.68 104.64 1582.75 105.707 1582.75 107.023C1582.75 108.339 1581.68 109.406 1580.37 109.406Z" fill="white"/>
<path d="M1600.34 241.909C1600.35 242.379 1600.49 242.837 1600.76 243.225C1601.02 243.613 1601.4 243.915 1601.83 244.091C1602.27 244.267 1602.75 244.311 1603.21 244.216C1603.67 244.121 1604.09 243.891 1604.42 243.557C1604.75 243.223 1604.97 242.798 1605.06 242.337C1605.15 241.875 1605.1 241.397 1604.92 240.963C1604.74 240.53 1604.44 240.159 1604.05 239.898C1603.65 239.638 1603.19 239.499 1602.72 239.499C1602.41 239.499 1602.1 239.561 1601.81 239.682C1601.52 239.804 1601.25 239.982 1601.03 240.206C1600.81 240.43 1600.63 240.696 1600.52 240.988C1600.4 241.281 1600.34 241.593 1600.34 241.909Z" fill="white"/>
<path d="M1527.72 401.058C1527.72 401.535 1527.86 402 1528.13 402.397C1528.39 402.793 1528.77 403.102 1529.21 403.284C1529.65 403.467 1530.13 403.515 1530.6 403.422C1531.07 403.329 1531.5 403.099 1531.84 402.762C1532.17 402.425 1532.4 401.995 1532.49 401.528C1532.59 401.06 1532.54 400.576 1532.36 400.135C1532.18 399.695 1531.87 399.319 1531.47 399.054C1531.07 398.789 1530.61 398.648 1530.13 398.648C1529.49 398.648 1528.88 398.902 1528.43 399.354C1527.98 399.806 1527.72 400.419 1527.72 401.058Z" fill="white"/>
<path d="M1699.57 388.141C1699.57 388.617 1699.71 389.083 1699.98 389.48C1700.24 389.876 1700.62 390.185 1701.06 390.367C1701.5 390.55 1701.98 390.598 1702.45 390.505C1702.92 390.412 1703.34 390.182 1703.68 389.845C1704.02 389.508 1704.25 389.078 1704.34 388.611C1704.43 388.143 1704.39 387.659 1704.2 387.218C1704.02 386.778 1703.71 386.402 1703.32 386.137C1702.92 385.872 1702.45 385.73 1701.98 385.73C1701.34 385.73 1700.73 385.984 1700.28 386.436C1699.82 386.888 1699.57 387.501 1699.57 388.141Z" fill="white"/>
<path d="M1916.08 115.012C1916.07 115.491 1916.21 115.96 1916.47 116.361C1916.73 116.761 1917.11 117.074 1917.55 117.26C1917.99 117.446 1918.48 117.496 1918.95 117.404C1919.42 117.311 1919.85 117.081 1920.19 116.743C1920.53 116.404 1920.76 115.972 1920.85 115.502C1920.94 115.032 1920.89 114.545 1920.7 114.104C1920.52 113.662 1920.21 113.286 1919.81 113.023C1919.41 112.761 1918.94 112.623 1918.46 112.629C1917.83 112.629 1917.22 112.88 1916.77 113.327C1916.33 113.773 1916.08 114.38 1916.08 115.012Z" fill="white"/>
<path d="M1669.12 469.76C1669.13 470.23 1669.27 470.688 1669.53 471.076C1669.8 471.464 1670.17 471.766 1670.61 471.942C1671.04 472.118 1671.52 472.161 1671.98 472.066C1672.44 471.971 1672.86 471.742 1673.2 471.408C1673.53 471.074 1673.75 470.649 1673.84 470.187C1673.93 469.726 1673.88 469.248 1673.7 468.814C1673.52 468.38 1673.21 468.01 1672.82 467.749C1672.43 467.489 1671.97 467.349 1671.5 467.349C1671.19 467.349 1670.87 467.412 1670.58 467.533C1670.29 467.655 1670.03 467.833 1669.81 468.057C1669.59 468.281 1669.41 468.547 1669.29 468.839C1669.18 469.131 1669.12 469.444 1669.12 469.76Z" fill="white"/>
<path d="M1653.15 417.604C1652.42 417.604 1651.82 417.009 1651.82 416.277C1651.82 415.544 1652.42 414.95 1653.15 414.95C1653.88 414.95 1654.48 415.544 1654.48 416.277C1654.48 417.009 1653.88 417.604 1653.15 417.604Z" fill="white"/>
<path d="M1580.4 373.517C1579.66 373.517 1579.07 372.923 1579.07 372.19C1579.07 371.458 1579.66 370.864 1580.4 370.864C1581.13 370.864 1581.72 371.458 1581.72 372.19C1581.72 372.923 1581.13 373.517 1580.4 373.517Z" fill="white"/>
<path d="M1442.54 270.695C1441.81 270.695 1441.22 270.101 1441.22 269.368C1441.22 268.635 1441.81 268.041 1442.54 268.041C1443.28 268.041 1443.87 268.635 1443.87 269.368C1443.87 270.101 1443.28 270.695 1442.54 270.695Z" fill="white"/>
<path d="M1610.47 403.062C1609.73 403.062 1609.14 402.467 1609.14 401.735C1609.14 401.002 1609.73 400.408 1610.47 400.408C1611.2 400.408 1611.79 401.002 1611.79 401.735C1611.79 402.467 1611.2 403.062 1610.47 403.062Z" fill="white"/>
<path d="M1587.97 459.496C1587.24 459.496 1586.65 458.902 1586.65 458.169C1586.65 457.437 1587.24 456.843 1587.97 456.843C1588.71 456.843 1589.3 457.437 1589.3 458.169C1589.3 458.902 1588.71 459.496 1587.97 459.496Z" fill="white"/>
<path d="M1500.39 459.171C1499.65 459.171 1499.06 458.577 1499.06 457.844C1499.06 457.111 1499.65 456.517 1500.39 456.517C1501.12 456.517 1501.71 457.111 1501.71 457.844C1501.71 458.577 1501.12 459.171 1500.39 459.171Z" fill="white"/>
<path d="M1315.3 394.694C1314.57 394.694 1313.98 394.1 1313.98 393.367C1313.98 392.634 1314.57 392.04 1315.3 392.04C1316.04 392.04 1316.63 392.634 1316.63 393.367C1316.63 394.1 1316.04 394.694 1315.3 394.694Z" fill="white"/>
<path d="M1627 425.917C1626.27 425.917 1625.68 425.323 1625.68 424.59C1625.68 423.857 1626.27 423.263 1627 423.263C1627.74 423.263 1628.33 423.857 1628.33 424.59C1628.33 425.323 1627.74 425.917 1627 425.917Z" fill="white"/>
<path d="M1495.43 530.256C1494.7 530.256 1494.11 529.662 1494.11 528.929C1494.11 528.197 1494.7 527.603 1495.43 527.603C1496.17 527.603 1496.76 528.197 1496.76 528.929C1496.76 529.662 1496.17 530.256 1495.43 530.256Z" fill="white"/>
<path d="M1625.11 386.272C1624.75 386.34 1624.43 386.548 1624.23 386.85C1624.02 387.152 1623.94 387.524 1624.01 387.883C1624.08 388.242 1624.29 388.559 1624.59 388.765C1624.89 388.971 1625.26 389.048 1625.62 388.98C1625.8 388.946 1625.97 388.878 1626.12 388.778C1626.27 388.679 1626.4 388.551 1626.51 388.401C1626.61 388.252 1626.68 388.083 1626.72 387.906C1626.75 387.729 1626.75 387.546 1626.72 387.369C1626.69 387.191 1626.62 387.021 1626.52 386.87C1626.42 386.719 1626.29 386.588 1626.14 386.486C1625.99 386.385 1625.82 386.313 1625.65 386.276C1625.47 386.24 1625.29 386.238 1625.11 386.272Z" fill="white"/>
<path d="M1660.24 581.79C1659.51 581.79 1658.92 581.195 1658.92 580.463C1658.92 579.73 1659.51 579.136 1660.24 579.136C1660.97 579.136 1661.57 579.73 1661.57 580.463C1661.57 581.195 1660.97 581.79 1660.24 581.79Z" fill="white"/>
<path d="M1706.26 275.786C1705.52 275.786 1704.93 275.192 1704.93 274.459C1704.93 273.726 1705.52 273.132 1706.26 273.132C1706.99 273.132 1707.58 273.726 1707.58 274.459C1707.58 275.192 1706.99 275.786 1706.26 275.786Z" fill="white"/>
<path d="M1621.35 307.388C1620.61 307.388 1620.02 306.794 1620.02 306.061C1620.02 305.328 1620.61 304.734 1621.35 304.734C1622.08 304.734 1622.67 305.328 1622.67 306.061C1622.67 306.794 1622.08 307.388 1621.35 307.388Z" fill="white"/>
<path d="M1799.5 300.455C1798.77 300.455 1798.17 299.861 1798.17 299.128C1798.17 298.396 1798.77 297.802 1799.5 297.802C1800.23 297.802 1800.83 298.396 1800.83 299.128C1800.83 299.861 1800.23 300.455 1799.5 300.455Z" fill="white"/>
<path d="M1827.92 563.673C1827.19 563.673 1826.59 563.079 1826.59 562.346C1826.59 561.613 1827.19 561.019 1827.92 561.019C1828.65 561.019 1829.25 561.613 1829.25 562.346C1829.25 563.079 1828.65 563.673 1827.92 563.673Z" fill="white"/>
<path d="M1763.96 475.365C1762.65 475.365 1761.58 474.298 1761.58 472.982C1761.58 471.666 1762.65 470.599 1763.96 470.599C1765.28 470.599 1766.34 471.666 1766.34 472.982C1766.34 474.298 1765.28 475.365 1763.96 475.365Z" fill="white"/>
<path d="M1808.65 667.417C1808.65 667.893 1808.79 668.359 1809.05 668.756C1809.32 669.152 1809.69 669.461 1810.14 669.643C1810.58 669.826 1811.06 669.873 1811.53 669.78C1811.99 669.687 1812.42 669.458 1812.76 669.121C1813.1 668.784 1813.33 668.354 1813.42 667.887C1813.51 667.419 1813.46 666.935 1813.28 666.494C1813.1 666.054 1812.79 665.678 1812.4 665.413C1812 665.148 1811.53 665.007 1811.06 665.007C1810.74 665.003 1810.42 665.063 1810.13 665.183C1809.84 665.302 1809.57 665.48 1809.35 665.704C1809.12 665.929 1808.94 666.196 1808.82 666.49C1808.7 666.784 1808.64 667.099 1808.65 667.417Z" fill="white"/>
<path d="M746.796 7.74763C746.796 8.69563 747.077 9.62245 747.603 10.4107C748.13 11.1989 748.878 11.8133 749.753 12.1761C750.629 12.5388 751.592 12.6337 752.521 12.4488C753.451 12.2638 754.304 11.8073 754.974 11.1369C755.644 10.4666 756.101 9.61259 756.286 8.68281C756.47 7.75302 756.375 6.78932 756.013 5.91349C755.65 5.03765 755.036 4.28901 754.248 3.76233C753.46 3.23565 752.534 2.95459 751.587 2.95459C750.316 2.95459 749.098 3.45961 748.199 4.3585C747.301 5.2574 746.796 6.47641 746.796 7.74763Z" fill="white"/>
<path d="M1184.92 89.8813C1184.92 90.3602 1185.06 90.8298 1185.32 91.2303C1185.58 91.6308 1185.96 91.944 1186.4 92.1298C1186.84 92.3155 1187.33 92.3655 1187.8 92.2734C1188.27 92.1813 1188.7 91.9511 1189.04 91.6124C1189.37 91.2737 1189.6 90.8418 1189.7 90.3718C1189.79 89.9018 1189.74 89.415 1189.55 88.9735C1189.37 88.532 1189.05 88.1558 1188.65 87.8931C1188.25 87.6303 1187.78 87.4928 1187.31 87.4982C1186.67 87.4982 1186.07 87.7493 1185.62 88.1962C1185.17 88.6431 1184.92 89.2492 1184.92 89.8813Z" fill="white"/>
<path d="M1256.92 242.748C1256.19 242.748 1255.59 242.154 1255.59 241.421C1255.59 240.688 1256.19 240.094 1256.92 240.094C1257.65 240.094 1258.25 240.688 1258.25 241.421C1258.25 242.154 1257.65 242.748 1256.92 242.748Z" fill="white"/>
<path d="M1065.72 75.2855C1064.99 75.2855 1064.4 74.6914 1064.4 73.9585C1064.4 73.2257 1064.99 72.6316 1065.72 72.6316C1066.45 72.6316 1067.05 73.2257 1067.05 73.9585C1067.05 74.6914 1066.45 75.2855 1065.72 75.2855Z" fill="white"/>
<path d="M1095.82 104.83C1095.09 104.83 1094.49 104.236 1094.49 103.503C1094.49 102.77 1095.09 102.176 1095.82 102.176C1096.55 102.176 1097.15 102.77 1097.15 103.503C1097.15 104.236 1096.55 104.83 1095.82 104.83Z" fill="white"/>
<path d="M1112.33 127.658C1111.6 127.658 1111.01 127.064 1111.01 126.331C1111.01 125.598 1111.6 125.004 1112.33 125.004C1113.06 125.004 1113.66 125.598 1113.66 126.331C1113.66 127.064 1113.06 127.658 1112.33 127.658Z" fill="white"/>
<path d="M1453.18 105.967C1452.45 105.967 1451.86 105.373 1451.86 104.64C1451.86 103.907 1452.45 103.313 1453.18 103.313C1453.91 103.313 1454.51 103.907 1454.51 104.64C1454.51 105.373 1453.91 105.967 1453.18 105.967Z" fill="white"/>
<path d="M1246.91 174.75C1246.91 175.228 1247.05 175.695 1247.31 176.092C1247.58 176.489 1247.96 176.798 1248.4 176.979C1248.84 177.161 1249.33 177.207 1249.8 177.112C1250.26 177.017 1250.69 176.784 1251.03 176.444C1251.36 176.105 1251.59 175.673 1251.68 175.204C1251.77 174.734 1251.72 174.249 1251.53 173.809C1251.35 173.369 1251.03 172.994 1250.63 172.733C1250.23 172.471 1249.77 172.335 1249.29 172.34C1248.65 172.347 1248.05 172.604 1247.6 173.055C1247.16 173.507 1246.91 174.116 1246.91 174.75Z" fill="white"/>
<path d="M1231.7 486.712C1231.7 487.661 1231.98 488.589 1232.5 489.378C1233.03 490.166 1233.78 490.781 1234.66 491.143C1235.54 491.505 1236.5 491.598 1237.43 491.411C1238.36 491.224 1239.21 490.765 1239.88 490.092C1240.55 489.418 1241.01 488.562 1241.19 487.63C1241.37 486.699 1241.27 485.734 1240.9 484.859C1240.54 483.983 1239.92 483.237 1239.13 482.713C1238.34 482.19 1237.41 481.913 1236.46 481.919C1235.83 481.919 1235.21 482.043 1234.63 482.284C1234.05 482.525 1233.52 482.879 1233.08 483.324C1232.64 483.77 1232.29 484.298 1232.05 484.88C1231.81 485.461 1231.69 486.084 1231.7 486.712Z" fill="white"/>
<path d="M1344.89 506.886C1344.89 507.836 1345.17 508.763 1345.7 509.552C1346.23 510.341 1346.98 510.955 1347.85 511.317C1348.73 511.679 1349.69 511.773 1350.62 511.585C1351.55 511.398 1352.41 510.939 1353.08 510.266C1353.75 509.593 1354.2 508.736 1354.38 507.805C1354.56 506.873 1354.46 505.909 1354.1 505.033C1353.73 504.158 1353.11 503.411 1352.32 502.888C1351.53 502.364 1350.6 502.088 1349.65 502.093C1348.39 502.1 1347.17 502.609 1346.28 503.507C1345.39 504.405 1344.89 505.62 1344.89 506.886Z" fill="white"/>
<path d="M1519.44 700.4C1519.44 701.348 1519.72 702.275 1520.25 703.063C1520.77 703.851 1521.52 704.466 1522.4 704.828C1523.27 705.191 1524.24 705.286 1525.17 705.101C1526.1 704.916 1526.95 704.46 1527.62 703.789C1528.29 703.119 1528.75 702.265 1528.93 701.335C1529.12 700.406 1529.02 699.442 1528.66 698.566C1528.3 697.69 1527.68 696.942 1526.89 696.415C1526.11 695.888 1525.18 695.607 1524.23 695.607C1522.96 695.607 1521.74 696.112 1520.84 697.011C1519.95 697.91 1519.44 699.129 1519.44 700.4Z" fill="white"/>
<path d="M889.627 229.208C889.621 230.157 889.898 231.087 890.421 231.878C890.944 232.67 891.69 233.289 892.565 233.656C893.44 234.023 894.404 234.121 895.335 233.939C896.267 233.758 897.123 233.303 897.795 232.634C898.468 231.965 898.927 231.111 899.114 230.18C899.301 229.25 899.208 228.284 898.846 227.407C898.484 226.53 897.87 225.78 897.082 225.252C896.294 224.724 895.366 224.442 894.418 224.442C893.152 224.442 891.937 224.943 891.04 225.836C890.142 226.729 889.634 227.941 889.627 229.208Z" fill="white"/>
<path d="M575.626 104.017C572.98 104.017 570.835 101.871 570.835 99.2241C570.835 96.5769 572.98 94.4309 575.626 94.4309C578.272 94.4309 580.417 96.5769 580.417 99.2241C580.417 101.871 578.272 104.017 575.626 104.017Z" fill="white"/>
<path d="M937.535 93.1582C936.219 93.1582 935.153 92.0912 935.153 90.7751C935.153 89.459 936.219 88.3921 937.535 88.3921C938.85 88.3921 939.917 89.459 939.917 90.7751C939.917 92.0912 938.85 93.1582 937.535 93.1582Z" fill="white"/>
<path d="M1334.3 322.607C1334.31 323.077 1334.45 323.535 1334.72 323.923C1334.98 324.312 1335.36 324.613 1335.79 324.789C1336.23 324.965 1336.71 325.009 1337.17 324.914C1337.63 324.819 1338.05 324.59 1338.38 324.255C1338.71 323.921 1338.93 323.496 1339.02 323.035C1339.11 322.573 1339.07 322.096 1338.88 321.662C1338.7 321.228 1338.4 320.857 1338.01 320.597C1337.62 320.336 1337.16 320.197 1336.69 320.197C1336.37 320.193 1336.06 320.253 1335.76 320.373C1335.47 320.493 1335.21 320.671 1334.98 320.896C1334.76 321.121 1334.59 321.388 1334.47 321.682C1334.35 321.976 1334.3 322.291 1334.3 322.607Z" fill="white"/>
<path d="M1097.23 196.387C1095.91 196.387 1094.85 195.32 1094.85 194.004C1094.85 192.688 1095.91 191.621 1097.23 191.621C1098.54 191.621 1099.61 192.688 1099.61 194.004C1099.61 195.32 1098.54 196.387 1097.23 196.387Z" fill="white"/>
<path d="M785.961 266.47C784.646 266.47 783.58 265.403 783.58 264.087C783.58 262.771 784.646 261.704 785.961 261.704C787.277 261.704 788.343 262.771 788.343 264.087C788.343 265.403 787.277 266.47 785.961 266.47Z" fill="white"/>
<path d="M1106.97 388.141C1106.97 388.617 1107.11 389.083 1107.38 389.48C1107.64 389.876 1108.02 390.185 1108.46 390.367C1108.9 390.55 1109.38 390.598 1109.85 390.505C1110.32 390.412 1110.75 390.182 1111.08 389.845C1111.42 389.508 1111.65 389.078 1111.74 388.611C1111.84 388.143 1111.79 387.659 1111.61 387.218C1111.42 386.778 1111.12 386.402 1110.72 386.137C1110.32 385.872 1109.86 385.73 1109.38 385.73C1108.74 385.73 1108.13 385.984 1107.68 386.436C1107.23 386.888 1106.97 387.501 1106.97 388.141Z" fill="white"/>
<path d="M1323.48 115.011C1323.48 115.483 1323.62 115.944 1323.88 116.335C1324.14 116.727 1324.51 117.033 1324.95 117.213C1325.38 117.393 1325.86 117.441 1326.32 117.349C1326.79 117.257 1327.21 117.03 1327.54 116.697C1327.88 116.363 1328.1 115.939 1328.2 115.476C1328.29 115.014 1328.24 114.535 1328.06 114.099C1327.88 113.664 1327.57 113.292 1327.18 113.03C1326.79 112.768 1326.33 112.628 1325.86 112.628C1325.23 112.628 1324.62 112.88 1324.18 113.326C1323.73 113.773 1323.48 114.379 1323.48 115.011Z" fill="white"/>
<path d="M1129.6 455.516C1129.6 455.987 1129.74 456.448 1130 456.839C1130.26 457.231 1130.63 457.537 1131.07 457.717C1131.51 457.897 1131.98 457.945 1132.45 457.853C1132.91 457.761 1133.33 457.534 1133.67 457.201C1134 456.867 1134.23 456.443 1134.32 455.98C1134.41 455.518 1134.36 455.039 1134.18 454.603C1134 454.168 1133.7 453.796 1133.3 453.534C1132.91 453.272 1132.45 453.132 1131.98 453.132C1131.67 453.129 1131.36 453.188 1131.07 453.307C1130.78 453.425 1130.51 453.6 1130.29 453.822C1130.07 454.044 1129.89 454.309 1129.77 454.599C1129.66 454.89 1129.6 455.202 1129.6 455.516Z" fill="white"/>
<path d="M1060.55 417.604C1059.82 417.604 1059.23 417.009 1059.23 416.277C1059.23 415.544 1059.82 414.95 1060.55 414.95C1061.29 414.95 1061.88 415.544 1061.88 416.277C1061.88 417.009 1061.29 417.604 1060.55 417.604Z" fill="white"/>
<path d="M987.797 373.517C987.065 373.517 986.471 372.923 986.471 372.19C986.471 371.458 987.065 370.864 987.797 370.864C988.53 370.864 989.123 371.458 989.123 372.19C989.123 372.923 988.53 373.517 987.797 373.517Z" fill="white"/>
<path d="M849.947 270.695C849.215 270.695 848.621 270.101 848.621 269.368C848.621 268.635 849.215 268.041 849.947 268.041C850.68 268.041 851.273 268.635 851.273 269.368C851.273 270.101 850.68 270.695 849.947 270.695Z" fill="white"/>
<path d="M873.901 192.623C873.169 192.623 872.575 192.029 872.575 191.296C872.575 190.563 873.169 189.969 873.901 189.969C874.634 189.969 875.228 190.563 875.228 191.296C875.228 192.029 874.634 192.623 873.901 192.623Z" fill="white"/>
<path d="M995.376 459.496C994.644 459.496 994.05 458.902 994.05 458.169C994.05 457.437 994.644 456.843 995.376 456.843C996.109 456.843 996.703 457.437 996.703 458.169C996.703 458.902 996.109 459.496 995.376 459.496Z" fill="white"/>
<path d="M718.295 164.162C717.562 164.162 716.968 163.568 716.968 162.835C716.968 162.102 717.562 161.508 718.295 161.508C719.027 161.508 719.621 162.102 719.621 162.835C719.621 163.568 719.027 164.162 718.295 164.162Z" fill="white"/>
<path d="M722.706 394.694C721.974 394.694 721.38 394.1 721.38 393.367C721.38 392.634 721.974 392.04 722.706 392.04C723.439 392.04 724.032 392.634 724.032 393.367C724.032 394.1 723.439 394.694 722.706 394.694Z" fill="white"/>
<path d="M1149.85 628.746C1149.11 628.746 1148.52 628.152 1148.52 627.419C1148.52 626.687 1149.11 626.093 1149.85 626.093C1150.58 626.093 1151.17 626.687 1151.17 627.419C1151.17 628.152 1150.58 628.746 1149.85 628.746Z" fill="white"/>
<path d="M987.473 549.131C986.74 549.131 986.147 548.537 986.147 547.804C986.147 547.071 986.74 546.477 987.473 546.477C988.205 546.477 988.799 547.071 988.799 547.804C988.799 548.537 988.205 549.131 987.473 549.131Z" fill="white"/>
<path d="M902.835 530.256C902.103 530.256 901.509 529.662 901.509 528.929C901.509 528.197 902.103 527.603 902.835 527.603C903.568 527.603 904.162 528.197 904.162 528.929C904.162 529.662 903.568 530.256 902.835 530.256Z" fill="white"/>
<path d="M863.047 509.54C862.315 509.54 861.721 508.946 861.721 508.213C861.721 507.48 862.315 506.886 863.047 506.886C863.779 506.886 864.373 507.48 864.373 508.213C864.373 508.946 863.779 509.54 863.047 509.54Z" fill="white"/>
<path d="M870.626 484.302C869.894 484.302 869.3 483.707 869.3 482.975C869.3 482.242 869.894 481.648 870.626 481.648C871.359 481.648 871.953 482.242 871.953 482.975C871.953 483.707 871.359 484.302 870.626 484.302Z" fill="white"/>
<path d="M1032.51 386.272C1032.34 386.304 1032.18 386.37 1032.04 386.465C1031.89 386.561 1031.77 386.684 1031.67 386.828C1031.58 386.971 1031.51 387.133 1031.48 387.302C1031.45 387.472 1031.45 387.646 1031.48 387.815C1031.55 388.16 1031.75 388.464 1032.04 388.662C1032.33 388.86 1032.68 388.935 1033.03 388.872C1033.2 388.838 1033.37 388.769 1033.52 388.67C1033.68 388.571 1033.81 388.443 1033.91 388.293C1034.01 388.144 1034.08 387.975 1034.12 387.798C1034.15 387.621 1034.16 387.438 1034.12 387.26C1034.09 387.082 1034.02 386.913 1033.92 386.762C1033.82 386.61 1033.69 386.48 1033.54 386.378C1033.39 386.276 1033.23 386.205 1033.05 386.168C1032.87 386.131 1032.69 386.13 1032.51 386.164V386.272Z" fill="white"/>
<path d="M1166.09 646.619C1165.35 646.619 1164.76 646.025 1164.76 645.292C1164.76 644.559 1165.35 643.965 1166.09 643.965C1166.82 643.965 1167.41 644.559 1167.41 645.292C1167.41 646.025 1166.82 646.619 1166.09 646.619Z" fill="white"/>
<path d="M1113.66 275.786C1112.92 275.786 1112.33 275.192 1112.33 274.459C1112.33 273.726 1112.92 273.132 1113.66 273.132C1114.39 273.132 1114.98 273.726 1114.98 274.459C1114.98 275.192 1114.39 275.786 1113.66 275.786Z" fill="white"/>
<path d="M1028.75 307.388C1028.02 307.388 1027.42 306.794 1027.42 306.061C1027.42 305.328 1028.02 304.734 1028.75 304.734C1029.48 304.734 1030.08 305.328 1030.08 306.061C1030.08 306.794 1029.48 307.388 1028.75 307.388Z" fill="white"/>
<path d="M295.432 175.508C294.699 175.508 294.106 174.914 294.106 174.181C294.106 173.449 294.699 172.854 295.432 172.854C296.164 172.854 296.758 173.449 296.758 174.181C296.758 174.914 296.164 175.508 295.432 175.508Z" fill="white"/>
<path d="M222.677 131.449C221.945 131.449 221.351 130.855 221.351 130.122C221.351 129.39 221.945 128.795 222.677 128.795C223.41 128.795 224.003 129.39 224.003 130.122C224.003 130.855 223.41 131.449 222.677 131.449Z" fill="white"/>
<path d="M230.255 217.428C229.523 217.428 228.929 216.834 228.929 216.101C228.929 215.369 229.523 214.774 230.255 214.774C230.988 214.774 231.582 215.369 231.582 216.101C231.582 216.834 230.988 217.428 230.255 217.428Z" fill="white"/>
<path d="M267.391 144.123C267.221 144.158 267.059 144.227 266.915 144.325C266.77 144.423 266.647 144.549 266.552 144.695C266.456 144.841 266.39 145.004 266.358 145.175C266.325 145.347 266.327 145.523 266.363 145.693C266.395 145.863 266.461 146.024 266.556 146.168C266.652 146.312 266.775 146.436 266.918 146.532C267.062 146.628 267.223 146.694 267.393 146.726C267.562 146.759 267.737 146.758 267.906 146.722C268.25 146.657 268.554 146.457 268.751 146.168C268.949 145.879 269.025 145.523 268.961 145.179C268.889 144.832 268.685 144.528 268.391 144.331C268.098 144.133 267.739 144.059 267.391 144.123Z" fill="white"/>
<path d="M263.629 65.3199C262.896 65.3199 262.302 64.7258 262.302 63.9929C262.302 63.2601 262.896 62.666 263.629 62.666C264.361 62.666 264.955 63.2601 264.955 63.9929C264.955 64.7258 264.361 65.3199 263.629 65.3199Z" fill="white"/>
<path d="M1206.88 300.455C1206.14 300.455 1205.55 299.861 1205.55 299.128C1205.55 298.396 1206.14 297.802 1206.88 297.802C1207.61 297.802 1208.2 298.396 1208.2 299.128C1208.2 299.861 1207.61 300.455 1206.88 300.455Z" fill="white"/>
<path d="M259.217 235.22C259.382 236.154 259.82 237.018 260.476 237.703C261.132 238.388 261.977 238.862 262.903 239.067C263.829 239.271 264.794 239.196 265.677 238.851C266.561 238.506 267.322 237.906 267.864 237.128C268.406 236.35 268.706 235.429 268.725 234.48C268.743 233.532 268.48 232.599 267.969 231.8C267.457 231.002 266.72 230.373 265.852 229.993C264.983 229.614 264.021 229.501 263.088 229.668C262.468 229.776 261.876 230.006 261.345 230.343C260.814 230.681 260.356 231.121 259.996 231.637C259.636 232.153 259.382 232.736 259.248 233.35C259.115 233.965 259.104 234.601 259.217 235.22Z" fill="white"/>
<path d="M237.13 136.513C237.13 137.462 237.412 138.39 237.939 139.179C238.467 139.968 239.217 140.582 240.094 140.944C240.971 141.306 241.935 141.399 242.865 141.212C243.796 141.025 244.649 140.566 245.318 139.893C245.987 139.22 246.441 138.363 246.623 137.432C246.805 136.5 246.706 135.535 246.339 134.66C245.972 133.785 245.354 133.038 244.563 132.515C243.771 131.991 242.842 131.715 241.894 131.72C241.266 131.72 240.644 131.844 240.064 132.085C239.485 132.327 238.958 132.68 238.516 133.126C238.073 133.571 237.723 134.1 237.485 134.681C237.247 135.262 237.126 135.885 237.13 136.513Z" fill="white"/>
<path d="M95.7615 141.902C94.446 141.902 93.3796 140.835 93.3796 139.519C93.3796 138.203 94.446 137.136 95.7615 137.136C97.0769 137.136 98.1433 138.203 98.1433 139.519C98.1433 140.835 97.0769 141.902 95.7615 141.902Z" fill="white"/>
<path d="M154.28 256.505C154.274 256.984 154.412 257.453 154.674 257.854C154.937 258.254 155.313 258.567 155.754 258.753C156.195 258.939 156.682 258.989 157.152 258.897C157.622 258.805 158.053 258.575 158.392 258.236C158.73 257.897 158.96 257.465 159.052 256.995C159.145 256.525 159.095 256.038 158.909 255.597C158.723 255.155 158.41 254.779 158.01 254.517C157.61 254.254 157.14 254.116 156.662 254.122C156.03 254.122 155.424 254.373 154.977 254.82C154.531 255.267 154.28 255.873 154.28 256.505Z" fill="white"/>
<path d="M46.9328 169.009C46.2003 169.009 45.6066 168.415 45.6066 167.682C45.6066 166.95 46.2003 166.355 46.9328 166.355C47.6652 166.355 48.2592 166.95 48.2592 167.682C48.2592 168.415 47.6652 169.009 46.9328 169.009Z" fill="white"/>
<path d="M18.8917 137.623C18.7203 137.652 18.5568 137.716 18.4109 137.81C18.2651 137.905 18.1401 138.028 18.0437 138.173C17.9473 138.317 17.8816 138.48 17.8506 138.651C17.8195 138.822 17.8238 138.998 17.8631 139.167C17.8969 139.345 17.9653 139.514 18.0645 139.665C18.1637 139.817 18.2918 139.947 18.4413 140.049C18.5909 140.151 18.759 140.222 18.9361 140.259C19.1132 140.296 19.296 140.298 19.4737 140.264C19.6514 140.23 19.8207 140.161 19.9719 140.062C20.1232 139.963 20.2534 139.835 20.3552 139.685C20.457 139.536 20.5283 139.367 20.5652 139.19C20.602 139.013 20.6036 138.83 20.5698 138.652C20.5442 138.466 20.4775 138.287 20.3745 138.129C20.2715 137.972 20.1348 137.839 19.9742 137.74C19.8137 137.642 19.6333 137.58 19.4461 137.56C19.2589 137.54 19.0695 137.562 18.8917 137.623Z" fill="white"/>
<path d="M98.7117 25.8641C98.7117 26.2232 98.8543 26.5677 99.1081 26.8216C99.3619 27.0755 99.706 27.2181 100.065 27.2181C100.424 27.2181 100.768 27.0755 101.022 26.8216C101.276 26.5677 101.418 26.2232 101.418 25.8641C101.418 25.505 101.276 25.1607 101.022 24.9068C100.768 24.6529 100.424 24.5101 100.065 24.5101C99.706 24.5101 99.3619 24.6529 99.1081 24.9068C98.8543 25.1607 98.7117 25.505 98.7117 25.8641Z" fill="white"/>
<path d="M13.8307 57.4668C13.8307 57.7292 13.9085 57.9857 14.0542 58.2039C14.2 58.4222 14.4071 58.5923 14.6495 58.6927C14.8918 58.7931 15.1585 58.8194 15.4157 58.7682C15.673 58.717 15.9094 58.5905 16.0949 58.4049C16.2804 58.2194 16.4067 57.983 16.4579 57.7256C16.5091 57.4682 16.4828 57.2013 16.3824 56.9589C16.282 56.7164 16.112 56.5093 15.8939 56.3635C15.6758 56.2177 15.4194 56.1399 15.157 56.1399C14.8053 56.1399 14.4678 56.2796 14.2191 56.5285C13.9704 56.7773 13.8307 57.1149 13.8307 57.4668Z" fill="white"/>
<path d="M193.255 51.8611C192.523 51.8611 191.929 51.267 191.929 50.5342C191.929 49.8014 192.523 49.2073 193.255 49.2073C193.988 49.2073 194.582 49.8014 194.582 50.5342C194.582 51.267 193.988 51.8611 193.255 51.8611Z" fill="white"/>
<path d="M1333.79 571.932C1333.06 571.932 1332.46 571.338 1332.46 570.605C1332.46 569.873 1333.06 569.279 1333.79 569.279C1334.52 569.279 1335.12 569.873 1335.12 570.605C1335.12 571.338 1334.52 571.932 1333.79 571.932Z" fill="white"/>
<path d="M1235.3 563.673C1234.56 563.673 1233.97 563.079 1233.97 562.346C1233.97 561.613 1234.56 561.019 1235.3 561.019C1236.03 561.019 1236.62 561.613 1236.62 562.346C1236.62 563.079 1236.03 563.673 1235.3 563.673Z" fill="white"/>
<path d="M1392.25 521.672C1390.94 521.672 1389.87 520.605 1389.87 519.289C1389.87 517.973 1390.94 516.906 1392.25 516.906C1393.57 516.906 1394.64 517.973 1394.64 519.289C1394.64 520.605 1393.57 521.672 1392.25 521.672Z" fill="white"/>
<path d="M1297.82 697.367C1296.5 697.367 1295.44 696.3 1295.44 694.984C1295.44 693.668 1296.5 692.601 1297.82 692.601C1299.13 692.601 1300.2 693.668 1300.2 694.984C1300.2 696.3 1299.13 697.367 1297.82 697.367Z" fill="white"/>
<path d="M250.312 410.942C249.58 410.942 248.986 410.348 248.986 409.615C248.986 408.882 249.58 408.288 250.312 408.288C251.044 408.288 251.638 408.882 251.638 409.615C251.638 410.348 251.044 410.942 250.312 410.942Z" fill="white"/>
<path d="M222.948 500.008C222.948 500.956 223.228 501.883 223.755 502.671C224.281 503.459 225.03 504.074 225.905 504.436C226.78 504.799 227.744 504.894 228.673 504.709C229.602 504.524 230.456 504.068 231.126 503.397C231.796 502.727 232.252 501.873 232.437 500.943C232.622 500.013 232.527 499.05 232.164 498.174C231.802 497.298 231.188 496.549 230.4 496.023C229.612 495.496 228.686 495.215 227.738 495.215C226.468 495.215 225.249 495.72 224.351 496.619C223.452 497.518 222.948 498.737 222.948 500.008Z" fill="white"/>
<path d="M41.9797 404.389C41.9797 404.865 42.1209 405.331 42.3856 405.728C42.6503 406.124 43.0265 406.433 43.4667 406.615C43.9069 406.798 44.3912 406.846 44.8585 406.753C45.3258 406.66 45.755 406.43 46.0919 406.093C46.4288 405.756 46.6583 405.326 46.7512 404.859C46.8442 404.391 46.7964 403.907 46.6141 403.466C46.4318 403.026 46.1231 402.65 45.727 402.385C45.3308 402.12 44.865 401.979 44.3885 401.979C43.7496 401.979 43.1369 402.232 42.6851 402.684C42.2334 403.136 41.9797 403.749 41.9797 404.389Z" fill="white"/>
<path d="M105.316 523.73C104 523.73 102.934 522.663 102.934 521.347C102.934 520.031 104 518.964 105.316 518.964C106.631 518.964 107.698 520.031 107.698 521.347C107.698 522.663 106.631 523.73 105.316 523.73Z" fill="white"/>
<path d="M268.825 588.18C268.093 588.18 267.499 587.586 267.499 586.853C267.499 586.121 268.093 585.526 268.825 585.526C269.558 585.526 270.152 586.121 270.152 586.853C270.152 587.586 269.558 588.18 268.825 588.18Z" fill="white"/>
<path d="M170.33 579.921C169.598 579.921 169.004 579.327 169.004 578.594C169.004 577.861 169.598 577.267 170.33 577.267C171.063 577.267 171.657 577.861 171.657 578.594C171.657 579.327 171.063 579.921 170.33 579.921Z" fill="white"/>
<path d="M230.364 711.232C230.359 711.711 230.496 712.18 230.759 712.581C231.021 712.981 231.397 713.294 231.838 713.48C232.28 713.666 232.766 713.716 233.236 713.624C233.706 713.532 234.138 713.302 234.476 712.963C234.815 712.624 235.045 712.192 235.137 711.722C235.229 711.252 235.179 710.766 234.993 710.324C234.807 709.883 234.494 709.506 234.094 709.244C233.694 708.981 233.225 708.843 232.746 708.849C232.114 708.849 231.508 709.1 231.062 709.547C230.615 709.994 230.364 710.6 230.364 711.232Z" fill="white"/>
<path d="M600.284 173.207C600.347 173.798 600.626 174.346 601.069 174.744C601.511 175.142 602.085 175.362 602.679 175.362C603.274 175.362 603.848 175.142 604.29 174.744C604.732 174.346 605.012 173.798 605.075 173.207C605.11 172.871 605.075 172.531 604.971 172.209C604.867 171.887 604.696 171.591 604.471 171.34C604.245 171.089 603.968 170.888 603.66 170.75C603.351 170.613 603.017 170.542 602.679 170.542C602.341 170.542 602.007 170.613 601.699 170.75C601.39 170.888 601.114 171.089 600.888 171.34C600.662 171.591 600.492 171.887 600.388 172.209C600.284 172.531 600.248 172.871 600.284 173.207Z" fill="white"/>
<path d="M672.281 326.073C671.549 326.073 670.955 325.479 670.955 324.746C670.955 324.014 671.549 323.419 672.281 323.419C673.014 323.419 673.607 324.014 673.607 324.746C673.607 325.479 673.014 326.073 672.281 326.073Z" fill="white"/>
<path d="M481.082 158.61C480.35 158.61 479.756 158.016 479.756 157.283C479.756 156.551 480.35 155.957 481.082 155.957C481.815 155.957 482.408 156.551 482.408 157.283C482.408 158.016 481.815 158.61 481.082 158.61Z" fill="white"/>
<path d="M509.881 50.48C509.149 50.48 508.555 49.8859 508.555 49.1531C508.555 48.4202 509.149 47.8262 509.881 47.8262C510.614 47.8262 511.208 48.4202 511.208 49.1531C511.208 49.8859 510.614 50.48 509.881 50.48Z" fill="white"/>
<path d="M527.691 210.983C526.959 210.983 526.365 210.389 526.365 209.656C526.365 208.923 526.959 208.329 527.691 208.329C528.424 208.329 529.018 208.923 529.018 209.656C529.018 210.389 528.424 210.983 527.691 210.983Z" fill="white"/>
<path d="M839.689 166.599C840.048 166.649 840.412 166.555 840.701 166.337C840.991 166.118 841.181 165.794 841.232 165.435C841.282 165.076 841.188 164.711 840.969 164.422C840.751 164.132 840.427 163.941 840.068 163.891C839.709 163.841 839.345 163.935 839.055 164.154C838.766 164.372 838.575 164.696 838.525 165.056C838.475 165.415 838.569 165.779 838.787 166.069C839.006 166.358 839.33 166.549 839.689 166.599Z" fill="white"/>
<path d="M662.266 258.048C662.261 258.527 662.398 258.997 662.661 259.397C662.924 259.798 663.3 260.111 663.741 260.297C664.182 260.482 664.669 260.532 665.139 260.44C665.608 260.348 666.04 260.118 666.379 259.779C666.717 259.441 666.947 259.009 667.039 258.539C667.131 258.069 667.081 257.582 666.896 257.14C666.71 256.699 666.397 256.323 665.997 256.06C665.596 255.797 665.127 255.66 664.648 255.665C664.017 255.665 663.411 255.916 662.964 256.363C662.517 256.81 662.266 257.416 662.266 258.048Z" fill="white"/>
<path d="M703.3 567.085C703.3 568.033 703.581 568.96 704.107 569.748C704.634 570.536 705.382 571.151 706.257 571.514C707.133 571.876 708.096 571.971 709.025 571.786C709.955 571.601 710.808 571.145 711.478 570.475C712.148 569.804 712.605 568.95 712.79 568.02C712.974 567.09 712.879 566.127 712.517 565.251C712.154 564.375 711.54 563.626 710.752 563.1C709.965 562.573 709.038 562.292 708.091 562.292C707.461 562.288 706.836 562.41 706.253 562.65C705.67 562.889 705.141 563.242 704.695 563.688C704.25 564.134 703.897 564.664 703.657 565.247C703.418 565.83 703.296 566.455 703.3 567.085Z" fill="white"/>
<path d="M1081.64 619.593C1081.64 620.541 1081.92 621.468 1082.44 622.256C1082.97 623.044 1083.72 623.659 1084.6 624.022C1085.47 624.384 1086.43 624.479 1087.36 624.294C1088.29 624.109 1089.15 623.653 1089.82 622.983C1090.49 622.312 1090.94 621.458 1091.13 620.528C1091.31 619.599 1091.22 618.635 1090.85 617.759C1090.49 616.883 1089.88 616.135 1089.09 615.608C1088.3 615.081 1087.38 614.8 1086.43 614.8C1085.8 614.797 1085.17 614.918 1084.59 615.158C1084.01 615.397 1083.48 615.75 1083.03 616.196C1082.59 616.642 1082.23 617.172 1081.99 617.755C1081.76 618.338 1081.63 618.963 1081.64 619.593Z" fill="white"/>
<path d="M888.788 635.544C888.788 636.493 889.069 637.42 889.597 638.209C890.125 638.998 890.874 639.612 891.751 639.974C892.628 640.336 893.593 640.43 894.523 640.243C895.453 640.055 896.307 639.596 896.976 638.923C897.644 638.25 898.099 637.394 898.28 636.462C898.462 635.531 898.363 634.566 897.997 633.691C897.63 632.815 897.012 632.068 896.22 631.545C895.429 631.022 894.5 630.745 893.551 630.751C892.923 630.751 892.302 630.875 891.722 631.116C891.142 631.357 890.616 631.711 890.173 632.156C889.73 632.601 889.38 633.13 889.142 633.711C888.905 634.293 888.784 634.915 888.788 635.544Z" fill="white"/>
<path d="M1084.99 709.011C1084.99 709.962 1085.27 710.892 1085.79 711.684C1086.31 712.477 1087.06 713.095 1087.94 713.461C1088.81 713.828 1089.78 713.925 1090.71 713.741C1091.64 713.557 1092.5 713.1 1093.17 712.428C1093.84 711.756 1094.3 710.899 1094.48 709.967C1094.67 709.035 1094.57 708.068 1094.21 707.192C1093.84 706.315 1093.22 705.566 1092.43 705.042C1091.64 704.517 1090.71 704.24 1089.76 704.245C1088.49 704.245 1087.28 704.747 1086.39 705.641C1085.5 706.535 1084.99 707.747 1084.99 709.011Z" fill="white"/>
<path d="M934.098 733.925C934.098 734.874 934.379 735.802 934.907 736.591C935.435 737.38 936.184 737.994 937.061 738.356C937.938 738.718 938.903 738.811 939.833 738.624C940.763 738.437 941.617 737.978 942.286 737.305C942.954 736.632 943.409 735.775 943.59 734.843C943.772 733.912 943.673 732.947 943.307 732.072C942.94 731.197 942.322 730.45 941.53 729.927C940.739 729.403 939.81 729.127 938.861 729.132C938.233 729.132 937.612 729.256 937.032 729.497C936.452 729.739 935.926 730.092 935.483 730.537C935.041 730.983 934.69 731.512 934.452 732.093C934.215 732.674 934.094 733.297 934.098 733.925Z" fill="white"/>
<path d="M1168.39 539.68C1168.39 540.628 1168.67 541.555 1169.19 542.343C1169.72 543.132 1170.47 543.746 1171.34 544.109C1172.22 544.471 1173.18 544.566 1174.11 544.381C1175.04 544.196 1175.89 543.74 1176.56 543.07C1177.23 542.399 1177.69 541.545 1177.88 540.615C1178.06 539.686 1177.97 538.722 1177.6 537.846C1177.24 536.97 1176.63 536.222 1175.84 535.695C1175.05 535.168 1174.12 534.887 1173.18 534.887C1171.91 534.887 1170.69 535.392 1169.79 536.291C1168.89 537.19 1168.39 538.409 1168.39 539.68Z" fill="white"/>
<path d="M304.987 312.479C304.987 313.427 305.268 314.354 305.794 315.142C306.32 315.93 307.069 316.545 307.944 316.907C308.82 317.27 309.783 317.365 310.712 317.18C311.641 316.995 312.495 316.539 313.165 315.868C313.835 315.198 314.291 314.344 314.476 313.414C314.661 312.484 314.566 311.521 314.204 310.645C313.841 309.769 313.227 309.02 312.439 308.494C311.651 307.967 310.725 307.686 309.778 307.686C308.507 307.686 307.288 308.191 306.39 309.09C305.491 309.989 304.987 311.208 304.987 312.479Z" fill="white"/>
<path d="M350.486 174.1C350.48 174.579 350.618 175.049 350.88 175.45C351.143 175.85 351.519 176.163 351.96 176.349C352.401 176.535 352.888 176.585 353.358 176.492C353.828 176.4 354.259 176.17 354.598 175.831C354.936 175.493 355.166 175.061 355.258 174.591C355.35 174.121 355.3 173.634 355.115 173.193C354.929 172.751 354.616 172.375 354.216 172.112C353.816 171.85 353.346 171.712 352.867 171.717C352.236 171.717 351.63 171.969 351.183 172.415C350.736 172.862 350.486 173.468 350.486 174.1Z" fill="white"/>
<path d="M749.664 405.905C749.664 406.376 749.804 406.837 750.066 407.229C750.328 407.621 750.7 407.926 751.135 408.107C751.57 408.287 752.049 408.334 752.511 408.242C752.973 408.15 753.397 407.923 753.731 407.59C754.064 407.257 754.291 406.832 754.382 406.37C754.474 405.908 754.427 405.429 754.247 404.993C754.067 404.558 753.761 404.185 753.37 403.924C752.978 403.662 752.517 403.522 752.046 403.522C751.415 403.522 750.809 403.773 750.362 404.22C749.915 404.667 749.664 405.273 749.664 405.905Z" fill="white"/>
<path d="M393.495 38.9981C392.179 38.9981 391.113 37.9312 391.113 36.6151C391.113 35.299 392.179 34.2321 393.495 34.2321C394.81 34.2321 395.877 35.299 395.877 36.6151C395.877 37.9312 394.81 38.9981 393.495 38.9981Z" fill="white"/>
<path d="M198.912 347.412C198.907 347.891 199.044 348.361 199.307 348.761C199.569 349.162 199.945 349.475 200.387 349.661C200.828 349.846 201.315 349.896 201.784 349.804C202.254 349.712 202.686 349.482 203.024 349.143C203.363 348.805 203.593 348.373 203.685 347.903C203.777 347.433 203.727 346.946 203.541 346.504C203.356 346.063 203.043 345.687 202.643 345.424C202.242 345.161 201.773 345.024 201.294 345.029C200.662 345.029 200.057 345.28 199.61 345.727C199.163 346.174 198.912 346.78 198.912 347.412Z" fill="white"/>
<path d="M466.872 285.751C465.557 285.751 464.49 284.684 464.49 283.368C464.49 282.052 465.557 280.985 466.872 280.985C468.188 280.985 469.254 282.052 469.254 283.368C469.254 284.684 468.188 285.751 466.872 285.751Z" fill="white"/>
<path d="M741.22 200.72C739.904 200.72 738.838 199.653 738.838 198.337C738.838 197.021 739.904 195.954 741.22 195.954C742.535 195.954 743.602 197.021 743.602 198.337C743.602 199.653 742.535 200.72 741.22 200.72Z" fill="white"/>
<path d="M583.259 588.424C583.253 588.903 583.391 589.373 583.653 589.773C583.916 590.174 584.292 590.487 584.733 590.673C585.175 590.859 585.661 590.909 586.131 590.816C586.601 590.724 587.033 590.494 587.371 590.155C587.71 589.817 587.94 589.385 588.032 588.915C588.124 588.445 588.074 587.958 587.888 587.517C587.702 587.075 587.389 586.699 586.989 586.436C586.589 586.174 586.12 586.036 585.641 586.041C585.009 586.041 584.403 586.292 583.956 586.739C583.51 587.186 583.259 587.792 583.259 588.424Z" fill="white"/>
<path d="M475.913 500.929C475.18 500.929 474.587 500.335 474.587 499.602C474.587 498.869 475.18 498.275 475.913 498.275C476.645 498.275 477.239 498.869 477.239 499.602C477.239 500.335 476.645 500.929 475.913 500.929Z" fill="white"/>
<path d="M403.157 456.842C402.425 456.842 401.831 456.248 401.831 455.515C401.831 454.783 402.425 454.188 403.157 454.188C403.89 454.188 404.483 454.783 404.483 455.515C404.483 456.248 403.89 456.842 403.157 456.842Z" fill="white"/>
<path d="M265.307 354.02C264.575 354.02 263.981 353.425 263.981 352.693C263.981 351.96 264.575 351.366 265.307 351.366C266.04 351.366 266.633 351.96 266.633 352.693C266.633 353.425 266.04 354.02 265.307 354.02Z" fill="white"/>
<path d="M316.599 287.89C315.866 287.89 315.272 287.296 315.272 286.563C315.272 285.83 315.866 285.236 316.599 285.236C317.331 285.236 317.925 285.83 317.925 286.563C317.925 287.296 317.331 287.89 316.599 287.89Z" fill="white"/>
<path d="M544.662 430.629C544.662 431.578 544.943 432.506 545.471 433.295C545.999 434.084 546.748 434.698 547.625 435.06C548.502 435.422 549.467 435.515 550.397 435.328C551.327 435.141 552.181 434.682 552.85 434.009C553.519 433.336 553.973 432.479 554.155 431.548C554.336 430.616 554.238 429.651 553.871 428.776C553.504 427.901 552.886 427.154 552.095 426.631C551.303 426.107 550.374 425.831 549.426 425.836C548.16 425.843 546.948 426.351 546.055 427.25C545.163 428.148 544.662 429.363 544.662 430.629Z" fill="white"/>
<path d="M737.891 873.198C737.891 874.146 738.172 875.072 738.698 875.86C739.225 876.649 739.973 877.263 740.848 877.626C741.724 877.989 742.687 878.083 743.616 877.899C744.546 877.714 745.399 877.257 746.069 876.587C746.739 875.916 747.196 875.062 747.38 874.132C747.565 873.203 747.47 872.239 747.108 871.363C746.745 870.487 746.131 869.739 745.343 869.212C744.556 868.685 743.629 868.404 742.682 868.404C742.052 868.401 741.427 868.522 740.844 868.762C740.261 869.001 739.732 869.354 739.286 869.8C738.84 870.246 738.488 870.776 738.248 871.359C738.009 871.942 737.887 872.567 737.891 873.198Z" fill="white"/>
<path d="M691.905 928.766C690.589 928.766 689.523 927.699 689.523 926.383C689.523 925.067 690.589 924 691.905 924C693.22 924 694.287 925.067 694.287 926.383C694.287 927.699 693.22 928.766 691.905 928.766Z" fill="white"/>
<path d="M441.89 851.994C440.574 851.994 439.508 850.927 439.508 849.611C439.508 848.294 440.574 847.228 441.89 847.228C443.205 847.228 444.272 848.294 444.272 849.611C444.272 850.927 443.205 851.994 441.89 851.994Z" fill="white"/>
<path d="M610.488 903.31C609.755 903.31 609.162 902.716 609.162 901.983C609.162 901.251 609.755 900.656 610.488 900.656C611.22 900.656 611.814 901.251 611.814 901.983C611.814 902.716 611.22 903.31 610.488 903.31Z" fill="white"/>
<path d="M539.817 798.565C539.085 798.565 538.491 797.971 538.491 797.238C538.491 796.505 539.085 795.911 539.817 795.911C540.55 795.911 541.143 796.505 541.143 797.238C541.143 797.971 540.55 798.565 539.817 798.565Z" fill="white"/>
<path d="M467.956 793.799C467.223 793.799 466.629 793.205 466.629 792.472C466.629 791.739 467.223 791.145 467.956 791.145C468.688 791.145 469.282 791.739 469.282 792.472C469.282 793.205 468.688 793.799 467.956 793.799Z" fill="white"/>
<path d="M779.168 815.463C778.436 815.463 777.842 814.869 777.842 814.136C777.842 813.403 778.436 812.809 779.168 812.809C779.9 812.809 780.494 813.403 780.494 814.136C780.494 814.869 779.9 815.463 779.168 815.463Z" fill="white"/>
<path d="M133.655 247.487C132.922 247.487 132.328 246.893 132.328 246.16C132.328 245.427 132.922 244.833 133.655 244.833C134.387 244.833 134.981 245.427 134.981 246.16C134.981 246.893 134.387 247.487 133.655 247.487Z" fill="white"/>
<path d="M138.066 478.019C137.334 478.019 136.74 477.425 136.74 476.692C136.74 475.959 137.334 475.365 138.066 475.365C138.799 475.365 139.393 475.959 139.393 476.692C139.393 477.425 138.799 478.019 138.066 478.019Z" fill="white"/>
<path d="M531.535 900.792C530.802 900.792 530.208 900.198 530.208 899.465C530.208 898.732 530.802 898.138 531.535 898.138C532.267 898.138 532.861 898.732 532.861 899.465C532.861 900.198 532.267 900.792 531.535 900.792Z" fill="white"/>
<path d="M374.548 805.958C373.815 805.958 373.222 805.364 373.222 804.631C373.222 803.898 373.815 803.304 374.548 803.304C375.28 803.304 375.874 803.898 375.874 804.631C375.874 805.364 375.28 805.958 374.548 805.958Z" fill="white"/>
<path d="M447.871 469.516C447.701 469.551 447.539 469.62 447.395 469.718C447.25 469.816 447.127 469.942 447.032 470.088C446.936 470.234 446.87 470.397 446.838 470.568C446.805 470.74 446.807 470.916 446.843 471.086C446.875 471.256 446.941 471.418 447.036 471.562C447.132 471.706 447.255 471.829 447.398 471.925C447.542 472.021 447.703 472.087 447.873 472.12C448.042 472.152 448.217 472.151 448.386 472.116C448.73 472.05 449.034 471.85 449.231 471.561C449.429 471.272 449.505 470.917 449.441 470.572C449.369 470.226 449.165 469.921 448.871 469.724C448.578 469.526 448.219 469.452 447.871 469.516Z" fill="white"/>
<path d="M474.668 684.152C474.411 684.206 474.176 684.334 473.992 684.522C473.809 684.709 473.685 684.946 473.636 685.204C473.587 685.462 473.616 685.729 473.718 685.97C473.821 686.212 473.993 686.417 474.212 686.561C474.431 686.705 474.688 686.78 474.951 686.778C475.213 686.775 475.469 686.695 475.685 686.548C475.902 686.4 476.07 686.191 476.169 685.948C476.267 685.705 476.291 685.438 476.238 685.181C476.202 685.01 476.133 684.848 476.035 684.704C475.937 684.56 475.812 684.437 475.666 684.341C475.52 684.245 475.357 684.18 475.186 684.147C475.014 684.115 474.838 684.116 474.668 684.152Z" fill="white"/>
<path d="M597.821 796.507C597.089 796.507 596.495 795.913 596.495 795.18C596.495 794.447 597.089 793.853 597.821 793.853C598.554 793.853 599.147 794.447 599.147 795.18C599.147 795.913 598.554 796.507 597.821 796.507Z" fill="white"/>
<path d="M529.017 359.084C528.285 359.084 527.691 358.489 527.691 357.757C527.691 357.024 528.285 356.43 529.017 356.43C529.75 356.43 530.343 357.024 530.343 357.757C530.343 358.489 529.75 359.084 529.017 359.084Z" fill="white"/>
<path d="M442.783 389.386C442.783 389.649 442.861 389.905 443.007 390.124C443.152 390.342 443.36 390.512 443.602 390.612C443.844 390.713 444.111 390.739 444.368 390.688C444.626 390.637 444.862 390.51 445.047 390.325C445.233 390.139 445.359 389.903 445.41 389.645C445.461 389.388 445.435 389.121 445.335 388.879C445.235 388.636 445.065 388.429 444.846 388.283C444.628 388.137 444.372 388.059 444.109 388.059C443.934 388.056 443.76 388.088 443.598 388.153C443.435 388.218 443.287 388.316 443.164 388.44C443.04 388.564 442.942 388.712 442.877 388.874C442.811 389.037 442.78 389.211 442.783 389.386Z" fill="white"/>
<path d="M622.235 383.781C621.503 383.781 620.909 383.186 620.909 382.454C620.909 381.721 621.503 381.127 622.235 381.127C622.968 381.127 623.562 381.721 623.562 382.454C623.562 383.186 622.968 383.781 622.235 383.781Z" fill="white"/>
<path d="M398.123 608.49C397.39 608.49 396.797 607.896 396.797 607.163C396.797 606.431 397.39 605.836 398.123 605.836C398.855 605.836 399.449 606.431 399.449 607.163C399.449 607.896 398.855 608.49 398.123 608.49Z" fill="white"/>
<path d="M309.1 871.004C309.1 871.481 309.242 871.947 309.506 872.343C309.771 872.739 310.147 873.048 310.587 873.231C311.028 873.413 311.512 873.461 311.979 873.368C312.447 873.275 312.876 873.045 313.213 872.708C313.55 872.371 313.779 871.941 313.872 871.474C313.965 871.006 313.917 870.522 313.735 870.082C313.552 869.641 313.244 869.265 312.848 869C312.452 868.735 311.986 868.594 311.509 868.594C310.87 868.594 310.258 868.848 309.806 869.3C309.354 869.752 309.1 870.365 309.1 871.004Z" fill="white"/>
<path d="M201.755 783.346C201.022 783.346 200.428 782.752 200.428 782.019C200.428 781.287 201.022 780.692 201.755 780.692C202.487 780.692 203.081 781.287 203.081 782.019C203.081 782.752 202.487 783.346 201.755 783.346Z" fill="white"/>
<path d="M128.999 739.287C128.266 739.287 127.672 738.693 127.672 737.96C127.672 737.227 128.266 736.633 128.999 736.633C129.731 736.633 130.325 737.227 130.325 737.96C130.325 738.693 129.731 739.287 128.999 739.287Z" fill="white"/>
<path d="M37.5954 590.699C36.863 590.699 36.269 590.105 36.269 589.372C36.269 588.639 36.863 588.045 37.5954 588.045C38.3279 588.045 38.9216 588.639 38.9216 589.372C38.9216 590.105 38.3279 590.699 37.5954 590.699Z" fill="white"/>
<path d="M173.713 751.852C173.543 751.887 173.381 751.956 173.236 752.054C173.092 752.152 172.969 752.278 172.874 752.424C172.778 752.57 172.712 752.733 172.68 752.904C172.647 753.076 172.649 753.252 172.685 753.423C172.756 753.782 172.968 754.097 173.272 754.301C173.577 754.504 173.95 754.577 174.309 754.506C174.668 754.434 174.983 754.222 175.186 753.918C175.389 753.613 175.463 753.24 175.391 752.881C175.357 752.698 175.285 752.525 175.18 752.372C175.075 752.219 174.939 752.09 174.781 751.993C174.623 751.897 174.446 751.834 174.262 751.809C174.078 751.785 173.891 751.799 173.713 751.852Z" fill="white"/>
<path d="M537.869 32.4718C537.136 32.4718 536.542 31.8778 536.542 31.1449C536.542 30.4121 537.136 29.818 537.869 29.818C538.601 29.818 539.195 30.4121 539.195 31.1449C539.195 31.8778 538.601 32.4718 537.869 32.4718Z" fill="white"/>
<path d="M601.448 139.465C600.715 139.465 600.122 138.871 600.122 138.138C600.122 137.405 600.715 136.811 601.448 136.811C602.18 136.811 602.774 137.405 602.774 138.138C602.774 138.871 602.18 139.465 601.448 139.465Z" fill="white"/>
<path d="M444.461 44.6306C443.729 44.6306 443.135 44.0366 443.135 43.3037C443.135 42.5709 443.729 41.9768 444.461 41.9768C445.194 41.9768 445.788 42.5709 445.788 43.3037C445.788 44.0366 445.194 44.6306 444.461 44.6306Z" fill="white"/>
<path d="M667.734 35.1797C667.001 35.1797 666.407 34.5857 666.407 33.8528C666.407 33.12 667.001 32.5259 667.734 32.5259C668.466 32.5259 669.06 33.12 669.06 33.8528C669.06 34.5857 668.466 35.1797 667.734 35.1797Z" fill="white"/>
<path d="M379.041 109.514C379.035 109.993 379.173 110.463 379.435 110.863C379.698 111.264 380.074 111.577 380.515 111.763C380.956 111.949 381.443 111.999 381.913 111.906C382.383 111.814 382.814 111.584 383.153 111.245C383.491 110.907 383.721 110.475 383.813 110.005C383.905 109.535 383.855 109.048 383.67 108.607C383.484 108.165 383.171 107.789 382.771 107.526C382.371 107.263 381.901 107.126 381.422 107.131C380.791 107.131 380.185 107.382 379.738 107.829C379.292 108.276 379.041 108.882 379.041 109.514Z" fill="white"/>
<path d="M271.695 22.019C270.962 22.019 270.368 21.4249 270.368 20.692C270.368 19.9592 270.962 19.3651 271.695 19.3651C272.427 19.3651 273.021 19.9592 273.021 20.692C273.021 21.4249 272.427 22.019 271.695 22.019Z" fill="white"/>
<path d="M254.859 641.528C254.126 641.528 253.532 640.934 253.532 640.201C253.532 639.468 254.126 638.874 254.859 638.874C255.591 638.874 256.185 639.468 256.185 640.201C256.185 640.934 255.591 641.528 254.859 641.528Z" fill="white"/>
<path d="M169.951 673.157C169.219 673.157 168.625 672.563 168.625 671.83C168.625 671.098 169.219 670.503 169.951 670.503C170.684 670.503 171.278 671.098 171.278 671.83C171.278 672.563 170.684 673.157 169.951 673.157Z" fill="white"/>
<path d="M15.8879 474.255C15.1555 474.255 14.5618 473.661 14.5618 472.928C14.5618 472.195 15.1555 471.601 15.8879 471.601C16.6204 471.601 17.2141 472.195 17.2141 472.928C17.2141 473.661 16.6204 474.255 15.8879 474.255Z" fill="white"/>
<path d="M348.104 666.198C347.371 666.198 346.778 665.604 346.778 664.871C346.778 664.138 347.371 663.544 348.104 663.544C348.836 663.544 349.43 664.138 349.43 664.871C349.43 665.604 348.836 666.198 348.104 666.198Z" fill="white"/>
<path d="M749.15 655.231C748.418 655.231 747.824 654.636 747.824 653.904C747.824 653.171 748.418 652.577 749.15 652.577C749.883 652.577 750.477 653.171 750.477 653.904C750.477 654.636 749.883 655.231 749.15 655.231Z" fill="white"/>
<path d="M865.402 810.968C864.67 810.968 864.076 810.373 864.076 809.641C864.076 808.908 864.67 808.314 865.402 808.314C866.135 808.314 866.728 808.908 866.728 809.641C866.728 810.373 866.135 810.968 865.402 810.968Z" fill="white"/>
<path d="M650.655 646.971C649.923 646.971 649.329 646.377 649.329 645.644C649.329 644.911 649.923 644.317 650.655 644.317C651.388 644.317 651.982 644.911 651.982 645.644C651.982 646.377 651.388 646.971 650.655 646.971Z" fill="white"/>
<path d="M743.981 826.295C743.249 826.295 742.655 825.701 742.655 824.968C742.655 824.235 743.249 823.641 743.981 823.641C744.714 823.641 745.307 824.235 745.307 824.968C745.307 825.701 744.714 826.295 743.981 826.295Z" fill="white"/>
<path d="M807.615 604.97C806.299 604.97 805.233 603.903 805.233 602.587C805.233 601.271 806.299 600.204 807.615 600.204C808.93 600.204 809.997 601.271 809.997 602.587C809.997 603.903 808.93 604.97 807.615 604.97Z" fill="white"/>
<path d="M827.996 496.785C827.99 497.263 828.127 497.732 828.388 498.132C828.65 498.532 829.024 498.845 829.464 499.031C829.903 499.218 830.389 499.269 830.858 499.18C831.327 499.09 831.758 498.862 832.098 498.526C832.438 498.19 832.67 497.761 832.765 497.293C832.86 496.824 832.814 496.338 832.632 495.897C832.451 495.455 832.142 495.076 831.746 494.81C831.349 494.544 830.882 494.402 830.405 494.402C829.77 494.402 829.162 494.653 828.711 495.099C828.26 495.545 828.003 496.151 827.996 496.785Z" fill="white"/>
<path d="M1620.26 592.567C1620.26 593.517 1620.54 594.446 1621.06 595.238C1621.58 596.029 1622.33 596.648 1623.2 597.015C1624.08 597.382 1625.04 597.481 1625.97 597.299C1626.9 597.117 1627.76 596.663 1628.43 595.993C1629.11 595.324 1629.56 594.47 1629.75 593.54C1629.94 592.609 1629.85 591.644 1629.48 590.766C1629.12 589.889 1628.51 589.139 1627.72 588.611C1626.93 588.083 1626 587.801 1625.06 587.801C1623.79 587.801 1622.57 588.303 1621.68 589.196C1620.78 590.089 1620.27 591.301 1620.26 592.567Z" fill="white"/>
<path d="M1825.46 557.418C1825.46 557.894 1825.6 558.36 1825.86 558.757C1826.13 559.153 1826.5 559.462 1826.94 559.644C1827.38 559.827 1827.87 559.874 1828.34 559.781C1828.8 559.688 1829.23 559.459 1829.57 559.122C1829.91 558.785 1830.13 558.355 1830.23 557.888C1830.32 557.42 1830.27 556.936 1830.09 556.495C1829.91 556.055 1829.6 555.679 1829.2 555.414C1828.81 555.149 1828.34 555.008 1827.87 555.008C1827.23 555.008 1826.61 555.262 1826.16 555.713C1825.71 556.165 1825.46 556.779 1825.46 557.418Z" fill="white"/>
<path d="M1514.19 627.501C1514.18 627.978 1514.32 628.447 1514.58 628.847C1514.84 629.247 1515.22 629.56 1515.66 629.747C1516.1 629.933 1516.58 629.985 1517.05 629.895C1517.52 629.805 1517.95 629.578 1518.29 629.242C1518.63 628.906 1518.86 628.476 1518.96 628.008C1519.05 627.54 1519.01 627.054 1518.83 626.612C1518.65 626.17 1518.34 625.792 1517.94 625.526C1517.54 625.26 1517.08 625.118 1516.6 625.118C1516.28 625.114 1515.97 625.173 1515.68 625.291C1515.39 625.409 1515.12 625.584 1514.9 625.806C1514.67 626.027 1514.49 626.291 1514.37 626.582C1514.25 626.873 1514.19 627.185 1514.19 627.501Z" fill="white"/>
<path d="M1837.61 751.527C1837.57 751.863 1837.61 752.203 1837.71 752.525C1837.82 752.846 1837.99 753.142 1838.21 753.394C1838.44 753.645 1838.72 753.846 1839.02 753.984C1839.33 754.121 1839.67 754.192 1840.01 754.192C1840.34 754.192 1840.68 754.121 1840.99 753.984C1841.29 753.846 1841.57 753.645 1841.8 753.394C1842.02 753.142 1842.19 752.846 1842.3 752.525C1842.4 752.203 1842.44 751.863 1842.4 751.527C1842.34 750.935 1842.06 750.388 1841.62 749.99C1841.17 749.592 1840.6 749.372 1840.01 749.372C1839.41 749.372 1838.84 749.592 1838.39 749.99C1837.95 750.388 1837.67 750.935 1837.61 751.527Z" fill="white"/>
<path d="M1898.54 868.513C1898.53 868.99 1898.67 869.459 1898.93 869.859C1899.19 870.259 1899.56 870.572 1900 870.759C1900.44 870.945 1900.93 870.997 1901.4 870.907C1901.87 870.817 1902.3 870.59 1902.64 870.254C1902.98 869.918 1903.21 869.488 1903.31 869.02C1903.4 868.552 1903.35 868.066 1903.17 867.624C1902.99 867.182 1902.68 866.804 1902.29 866.538C1901.89 866.272 1901.42 866.13 1900.95 866.13C1900.63 866.126 1900.32 866.185 1900.03 866.303C1899.73 866.421 1899.47 866.596 1899.24 866.818C1899.02 867.04 1898.84 867.304 1898.72 867.595C1898.6 867.886 1898.54 868.197 1898.54 868.513Z" fill="white"/>
<path d="M1791.19 781.017C1790.46 781.017 1789.86 780.423 1789.86 779.69C1789.86 778.957 1790.46 778.363 1791.19 778.363C1791.92 778.363 1792.52 778.957 1792.52 779.69C1792.52 780.423 1791.92 781.017 1791.19 781.017Z" fill="white"/>
<path d="M1718.44 736.931C1717.7 736.931 1717.11 736.337 1717.11 735.604C1717.11 734.871 1717.7 734.277 1718.44 734.277C1719.17 734.277 1719.76 734.871 1719.76 735.604C1719.76 736.337 1719.17 736.931 1718.44 736.931Z" fill="white"/>
<path d="M1580.58 634.108C1579.85 634.108 1579.26 633.514 1579.26 632.781C1579.26 632.048 1579.85 631.454 1580.58 631.454C1581.32 631.454 1581.91 632.048 1581.91 632.781C1581.91 633.514 1581.32 634.108 1580.58 634.108Z" fill="white"/>
<path d="M1604.54 556.036C1603.81 556.036 1603.21 555.442 1603.21 554.709C1603.21 553.977 1603.81 553.383 1604.54 553.383C1605.27 553.383 1605.86 553.977 1605.86 554.709C1605.86 555.442 1605.27 556.036 1604.54 556.036Z" fill="white"/>
<path d="M1726.01 822.91C1725.28 822.91 1724.69 822.316 1724.69 821.583C1724.69 820.85 1725.28 820.256 1726.01 820.256C1726.75 820.256 1727.34 820.85 1727.34 821.583C1727.34 822.316 1726.75 822.91 1726.01 822.91Z" fill="white"/>
<path d="M1769.7 954.112C1768.97 954.112 1768.37 953.518 1768.37 952.785C1768.37 952.053 1768.97 951.458 1769.7 951.458C1770.43 951.458 1771.03 952.053 1771.03 952.785C1771.03 953.518 1770.43 954.112 1769.7 954.112Z" fill="white"/>
<path d="M1612.85 881.782C1612.12 881.782 1611.52 881.188 1611.52 880.455C1611.52 879.722 1612.12 879.128 1612.85 879.128C1613.58 879.128 1614.17 879.722 1614.17 880.455C1614.17 881.188 1613.58 881.782 1612.85 881.782Z" fill="white"/>
<path d="M1763.15 749.604C1762.81 749.682 1762.51 749.89 1762.32 750.182C1762.13 750.475 1762.06 750.831 1762.12 751.175C1762.15 751.346 1762.21 751.51 1762.31 751.656C1762.4 751.802 1762.52 751.927 1762.67 752.023C1762.81 752.12 1762.98 752.186 1763.15 752.217C1763.32 752.248 1763.49 752.243 1763.66 752.204C1764.01 752.138 1764.31 751.939 1764.51 751.65C1764.71 751.361 1764.78 751.005 1764.72 750.661C1764.65 750.314 1764.44 750.01 1764.15 749.812C1763.86 749.615 1763.5 749.54 1763.15 749.604Z" fill="white"/>
<path d="M1798.28 945.176C1797.55 945.176 1796.96 944.582 1796.96 943.849C1796.96 943.117 1797.55 942.522 1798.28 942.522C1799.01 942.522 1799.61 943.117 1799.61 943.849C1799.61 944.582 1799.01 945.176 1798.28 945.176Z" fill="white"/>
<path d="M1844.3 639.172C1843.56 639.172 1842.97 638.578 1842.97 637.845C1842.97 637.112 1843.56 636.518 1844.3 636.518C1845.03 636.518 1845.62 637.112 1845.62 637.845C1845.62 638.578 1845.03 639.172 1844.3 639.172Z" fill="white"/>
<path d="M1759.39 670.802C1758.65 670.802 1758.06 670.207 1758.06 669.475C1758.06 668.742 1758.65 668.148 1759.39 668.148C1760.12 668.148 1760.71 668.742 1760.71 669.475C1760.71 670.207 1760.12 670.802 1759.39 670.802Z" fill="white"/>
<path d="M1564.1 531.123C1563.37 531.123 1562.77 530.529 1562.77 529.796C1562.77 529.063 1563.37 528.469 1564.1 528.469C1564.83 528.469 1565.43 529.063 1565.43 529.796C1565.43 530.529 1564.83 531.123 1564.1 531.123Z" fill="white"/>
<path d="M174.39 837.046C174.39 837.522 174.531 837.988 174.796 838.385C175.06 838.781 175.436 839.09 175.877 839.272C176.317 839.455 176.801 839.503 177.268 839.41C177.736 839.317 178.165 839.087 178.502 838.75C178.839 838.413 179.068 837.984 179.161 837.516C179.254 837.049 179.206 836.564 179.024 836.123C178.842 835.683 178.533 835.307 178.137 835.042C177.741 834.777 177.275 834.635 176.799 834.635C176.16 834.635 175.547 834.89 175.095 835.342C174.643 835.794 174.39 836.406 174.39 837.046Z" fill="white"/>
<path d="M346.236 824.128C346.236 824.605 346.378 825.071 346.642 825.467C346.907 825.864 347.283 826.173 347.723 826.355C348.164 826.537 348.648 826.585 349.115 826.492C349.583 826.399 350.012 826.17 350.349 825.833C350.686 825.496 350.915 825.066 351.008 824.599C351.101 824.131 351.053 823.646 350.871 823.206C350.689 822.766 350.38 822.389 349.984 822.124C349.587 821.86 349.122 821.719 348.645 821.719C348.006 821.719 347.394 821.972 346.942 822.424C346.49 822.876 346.236 823.489 346.236 824.128Z" fill="white"/>
<path d="M315.786 905.748C315.792 906.218 315.936 906.676 316.201 907.064C316.466 907.452 316.84 907.754 317.275 907.93C317.711 908.106 318.189 908.149 318.649 908.055C319.11 907.96 319.531 907.73 319.862 907.396C320.192 907.062 320.416 906.637 320.506 906.176C320.596 905.714 320.547 905.236 320.366 904.802C320.185 904.369 319.88 903.998 319.489 903.737C319.098 903.477 318.638 903.337 318.168 903.337C317.853 903.337 317.541 903.4 317.25 903.522C316.96 903.643 316.696 903.821 316.474 904.045C316.253 904.269 316.078 904.535 315.96 904.827C315.842 905.119 315.783 905.432 315.786 905.748Z" fill="white"/>
<path d="M299.817 853.591C299.085 853.591 298.491 852.997 298.491 852.264C298.491 851.532 299.085 850.938 299.817 850.938C300.55 850.938 301.143 851.532 301.143 852.264C301.143 852.997 300.55 853.591 299.817 853.591Z" fill="white"/>
<path d="M1727.37 896.92C1726.05 896.92 1724.99 895.853 1724.99 894.537C1724.99 893.221 1726.05 892.154 1727.37 892.154C1728.68 892.154 1729.75 893.221 1729.75 894.537C1729.75 895.853 1728.68 896.92 1727.37 896.92Z" fill="white"/>
<path d="M1647.98 1028.93C1647.25 1028.93 1646.65 1028.34 1646.65 1027.61C1646.65 1026.87 1647.25 1026.28 1647.98 1026.28C1648.71 1026.28 1649.31 1026.87 1649.31 1027.61C1649.31 1028.34 1648.71 1028.93 1647.98 1028.93Z" fill="white"/>
<path d="M1450.88 961.234C1450.88 961.497 1450.96 961.754 1451.1 961.972C1451.25 962.19 1451.46 962.36 1451.7 962.46C1451.94 962.561 1452.21 962.587 1452.47 962.536C1452.72 962.485 1452.96 962.358 1453.14 962.173C1453.33 961.987 1453.46 961.751 1453.51 961.494C1453.56 961.236 1453.53 960.969 1453.43 960.727C1453.33 960.484 1453.16 960.277 1452.94 960.131C1452.73 959.985 1452.47 959.907 1452.21 959.907C1452.03 959.907 1451.86 959.942 1451.7 960.009C1451.54 960.075 1451.39 960.173 1451.27 960.296C1451.15 960.419 1451.05 960.566 1450.98 960.727C1450.92 960.888 1450.88 961.06 1450.88 961.234Z" fill="white"/>
<path d="M1616.37 990.156C1616.2 990.191 1616.03 990.26 1615.89 990.358C1615.75 990.456 1615.62 990.582 1615.53 990.728C1615.43 990.874 1615.37 991.037 1615.33 991.208C1615.3 991.38 1615.3 991.556 1615.34 991.727C1615.41 992.086 1615.62 992.402 1615.93 992.605C1616.23 992.808 1616.6 992.882 1616.96 992.81C1617.32 992.738 1617.64 992.526 1617.84 992.222C1618.04 991.917 1618.12 991.544 1618.04 991.185C1618.01 991.003 1617.94 990.829 1617.83 990.677C1617.73 990.524 1617.59 990.394 1617.43 990.297C1617.28 990.2 1617.1 990.138 1616.92 990.114C1616.73 990.089 1616.54 990.104 1616.37 990.156Z" fill="white"/>
<path d="M1777.85 1031.64C1777.11 1031.64 1776.52 1031.05 1776.52 1030.32C1776.52 1029.58 1777.11 1028.99 1777.85 1028.99C1778.58 1028.99 1779.17 1029.58 1779.17 1030.32C1779.17 1031.05 1778.58 1031.64 1777.85 1031.64Z" fill="white"/>
<path d="M1601.99 937.323C1601.26 937.323 1600.67 936.729 1600.67 935.996C1600.67 935.263 1601.26 934.669 1601.99 934.669C1602.73 934.669 1603.32 935.263 1603.32 935.996C1603.32 936.729 1602.73 937.323 1601.99 937.323Z" fill="white"/>
<path d="M1386.79 1027.47C1386.79 1027.94 1386.94 1028.4 1387.2 1028.79C1387.47 1029.18 1387.84 1029.48 1388.28 1029.65C1388.71 1029.83 1389.19 1029.87 1389.65 1029.78C1390.11 1029.68 1390.53 1029.45 1390.86 1029.12C1391.19 1028.79 1391.42 1028.36 1391.51 1027.9C1391.6 1027.44 1391.55 1026.96 1391.37 1026.53C1391.19 1026.09 1390.88 1025.72 1390.49 1025.46C1390.1 1025.2 1389.64 1025.06 1389.17 1025.06C1388.85 1025.06 1388.54 1025.12 1388.25 1025.25C1387.96 1025.37 1387.7 1025.55 1387.48 1025.77C1387.25 1025.99 1387.08 1026.26 1386.96 1026.55C1386.84 1026.84 1386.78 1027.16 1386.79 1027.47Z" fill="white"/>
<path d="M1489.8 972.31C1489.07 972.31 1488.48 971.716 1488.48 970.983C1488.48 970.25 1489.07 969.656 1489.8 969.656C1490.54 969.656 1491.13 970.25 1491.13 970.983C1491.13 971.716 1490.54 972.31 1489.8 972.31Z" fill="white"/>
<path d="M1426.3 983.115C1424.99 983.115 1423.92 982.048 1423.92 980.732C1423.92 979.416 1424.99 978.349 1426.3 978.349C1427.62 978.349 1428.69 979.416 1428.69 980.732C1428.69 982.048 1427.62 983.115 1426.3 983.115Z" fill="white"/>
<path d="M1214.02 990.806C1214.02 991.284 1214.15 991.753 1214.41 992.152C1214.67 992.552 1215.05 992.865 1215.49 993.052C1215.93 993.239 1216.41 993.29 1216.88 993.2C1217.35 993.11 1217.78 992.883 1218.12 992.547C1218.46 992.211 1218.69 991.782 1218.79 991.314C1218.89 990.845 1218.84 990.359 1218.66 989.917C1218.48 989.475 1218.17 989.097 1217.77 988.831C1217.37 988.565 1216.91 988.423 1216.43 988.423C1216.11 988.419 1215.8 988.478 1215.51 988.597C1215.22 988.715 1214.95 988.89 1214.73 989.111C1214.5 989.333 1214.33 989.597 1214.2 989.888C1214.08 990.179 1214.02 990.491 1214.02 990.806Z" fill="white"/>
<path d="M1377.5 1010.2C1376.77 1010.2 1376.18 1009.6 1376.18 1008.87C1376.18 1008.14 1376.77 1007.54 1377.5 1007.54C1378.24 1007.54 1378.83 1008.14 1378.83 1008.87C1378.83 1009.6 1378.24 1010.2 1377.5 1010.2Z" fill="white"/>
<path d="M227.062 809.505C226.33 809.505 225.736 808.911 225.736 808.178C225.736 807.446 226.33 806.852 227.062 806.852C227.795 806.852 228.388 807.446 228.388 808.178C228.388 808.911 227.795 809.505 227.062 809.505Z" fill="white"/>
<path d="M257.133 839.05C256.4 839.05 255.807 838.455 255.807 837.723C255.807 836.99 256.4 836.396 257.133 836.396C257.865 836.396 258.459 836.99 258.459 837.723C258.459 838.455 257.865 839.05 257.133 839.05Z" fill="white"/>
<path d="M234.64 895.484C233.908 895.484 233.314 894.89 233.314 894.157C233.314 893.425 233.908 892.831 234.64 892.831C235.373 892.831 235.967 893.425 235.967 894.157C235.967 894.89 235.373 895.484 234.64 895.484Z" fill="white"/>
<path d="M33.5079 808.72C32.7754 808.72 32.1816 808.126 32.1816 807.393C32.1816 806.66 32.7754 806.066 33.5079 806.066C34.2404 806.066 34.8342 806.66 34.8342 807.393C34.8342 808.126 34.2404 808.72 33.5079 808.72Z" fill="white"/>
<path d="M147.053 895.159C146.32 895.159 145.727 894.565 145.727 893.832C145.727 893.099 146.32 892.505 147.053 892.505C147.785 892.505 148.379 893.099 148.379 893.832C148.379 894.565 147.785 895.159 147.053 895.159Z" fill="white"/>
<path d="M273.67 861.905C272.938 861.905 272.344 861.311 272.344 860.578C272.344 859.846 272.938 859.251 273.67 859.251C274.403 859.251 274.997 859.846 274.997 860.578C274.997 861.311 274.403 861.905 273.67 861.905Z" fill="white"/>
<path d="M644.321 766.286C643.589 766.286 642.995 765.691 642.995 764.959C642.995 764.226 643.589 763.632 644.321 763.632C645.054 763.632 645.647 764.226 645.647 764.959C645.647 765.691 645.054 766.286 644.321 766.286Z" fill="white"/>
<path d="M271.776 822.26C271.598 822.294 271.429 822.362 271.278 822.462C271.126 822.561 270.996 822.689 270.894 822.839C270.792 822.988 270.721 823.157 270.684 823.334C270.648 823.511 270.646 823.693 270.68 823.871C270.714 824.049 270.782 824.218 270.881 824.37C270.98 824.521 271.108 824.652 271.258 824.754C271.408 824.855 271.576 824.927 271.753 824.963C271.93 825 272.112 825.002 272.29 824.968C272.649 824.9 272.966 824.692 273.172 824.39C273.377 824.087 273.455 823.716 273.386 823.357C273.318 822.998 273.11 822.68 272.808 822.475C272.506 822.269 272.135 822.192 271.776 822.26Z" fill="white"/>
<path d="M628.677 728.834C627.945 728.834 627.351 728.24 627.351 727.507C627.351 726.774 627.945 726.18 628.677 726.18C629.41 726.18 630.003 726.774 630.003 727.507C630.003 728.24 629.41 728.834 628.677 728.834Z" fill="white"/>
<path d="M0.296707 666.306C0.291356 667.257 0.56846 668.187 1.09282 668.979C1.61717 669.772 2.3651 670.39 3.2416 670.757C4.1181 671.123 5.08367 671.22 6.01551 671.036C6.94735 670.852 7.80341 670.395 8.47504 669.723C9.14667 669.051 9.60358 668.194 9.78757 667.262C9.97156 666.33 9.87433 665.364 9.50838 664.487C9.14242 663.61 8.52427 662.861 7.73229 662.337C6.94031 661.812 6.01029 661.535 5.06048 661.54C3.79705 661.54 2.58538 662.042 1.692 662.936C0.798629 663.83 0.296707 665.042 0.296707 666.306Z" fill="white"/>
<path d="M38.9215 957.66C37.606 957.66 36.5396 956.593 36.5396 955.277C36.5396 953.961 37.606 952.894 38.9215 952.894C40.237 952.894 41.3035 953.961 41.3035 955.277C41.3035 956.593 40.237 957.66 38.9215 957.66Z" fill="white"/>
<path d="M588.699 739.639C588.699 740.587 588.98 741.514 589.507 742.302C590.033 743.09 590.781 743.704 591.657 744.067C592.532 744.43 593.495 744.525 594.425 744.34C595.354 744.155 596.208 743.699 596.878 743.028C597.548 742.358 598.004 741.504 598.189 740.574C598.374 739.644 598.279 738.681 597.916 737.805C597.554 736.929 596.94 736.18 596.152 735.654C595.364 735.127 594.438 734.846 593.49 734.846C592.86 734.842 592.235 734.964 591.652 735.203C591.07 735.443 590.54 735.796 590.094 736.242C589.649 736.688 589.296 737.217 589.057 737.801C588.817 738.384 588.696 739.009 588.699 739.639Z" fill="white"/>
<path d="M93.5689 912.003C92.2534 912.003 91.187 910.936 91.187 909.62C91.187 908.304 92.2534 907.237 93.5689 907.237C94.8844 907.237 95.9508 908.304 95.9508 909.62C95.9508 910.936 94.8844 912.003 93.5689 912.003Z" fill="white"/>
<path d="M549.019 781.152C548.287 781.152 547.693 780.558 547.693 779.825C547.693 779.093 548.287 778.499 549.019 778.499C549.752 778.499 550.346 779.093 550.346 779.825C550.346 780.558 549.752 781.152 549.019 781.152Z" fill="white"/>
<path d="M572.947 703.081C572.215 703.081 571.621 702.487 571.621 701.754C571.621 701.021 572.215 700.427 572.947 700.427C573.68 700.427 574.273 701.021 574.273 701.754C574.273 702.487 573.68 703.081 572.947 703.081Z" fill="white"/>
<path d="M210.768 967.111C210.035 967.111 209.442 966.517 209.442 965.784C209.442 965.051 210.035 964.457 210.768 964.457C211.5 964.457 212.094 965.051 212.094 965.784C212.094 966.517 211.5 967.111 210.768 967.111Z" fill="white"/>
<path d="M1530.27 854.756C1530.27 855.704 1530.55 856.631 1531.07 857.419C1531.6 858.207 1532.35 858.822 1533.22 859.184C1534.1 859.547 1535.06 859.642 1535.99 859.457C1536.92 859.272 1537.78 858.816 1538.45 858.145C1539.12 857.475 1539.57 856.621 1539.76 855.691C1539.94 854.762 1539.85 853.798 1539.48 852.922C1539.12 852.046 1538.51 851.297 1537.72 850.771C1536.93 850.244 1536.01 849.963 1535.06 849.963C1533.79 849.963 1532.57 850.468 1531.67 851.367C1530.77 852.266 1530.27 853.485 1530.27 854.756Z" fill="white"/>
<path d="M1480.3 769.319C1480.3 769.798 1480.43 770.268 1480.7 770.668C1480.96 771.069 1481.34 771.382 1481.78 771.567C1482.22 771.753 1482.7 771.803 1483.17 771.711C1483.64 771.619 1484.08 771.389 1484.41 771.05C1484.75 770.711 1484.98 770.279 1485.07 769.809C1485.17 769.339 1485.12 768.853 1484.93 768.411C1484.75 767.97 1484.43 767.593 1484.03 767.331C1483.63 767.068 1483.16 766.93 1482.68 766.936C1482.05 766.936 1481.45 767.187 1481 767.634C1480.55 768.081 1480.3 768.687 1480.3 769.319Z" fill="white"/>
<path d="M1535.84 966.001C1535.84 966.478 1535.97 966.947 1536.24 967.347C1536.5 967.747 1536.87 968.06 1537.31 968.247C1537.75 968.433 1538.24 968.485 1538.71 968.395C1539.17 968.305 1539.61 968.078 1539.95 967.742C1540.29 967.406 1540.52 966.976 1540.61 966.508C1540.71 966.04 1540.66 965.554 1540.48 965.112C1540.3 964.67 1539.99 964.292 1539.59 964.026C1539.2 963.76 1538.73 963.618 1538.25 963.618C1537.94 963.614 1537.62 963.673 1537.33 963.791C1537.04 963.909 1536.77 964.085 1536.55 964.306C1536.33 964.528 1536.15 964.792 1536.03 965.083C1535.91 965.374 1535.84 965.685 1535.84 966.001Z" fill="white"/>
<path d="M908.005 838.887C908.005 839.359 908.144 839.819 908.406 840.211C908.668 840.603 909.04 840.908 909.475 841.089C909.91 841.269 910.389 841.316 910.851 841.224C911.313 841.132 911.738 840.905 912.071 840.572C912.404 840.239 912.631 839.814 912.723 839.352C912.814 838.89 912.767 838.411 912.587 837.975C912.407 837.54 912.101 837.168 911.71 836.906C911.318 836.644 910.858 836.504 910.386 836.504C910.073 836.501 909.761 836.56 909.471 836.678C909.18 836.797 908.916 836.972 908.694 837.194C908.472 837.416 908.297 837.68 908.179 837.971C908.06 838.262 908.001 838.573 908.005 838.887Z" fill="white"/>
<path d="M1435.56 868.296C1434.25 868.296 1433.18 867.229 1433.18 865.913C1433.18 864.597 1434.25 863.53 1435.56 863.53C1436.88 863.53 1437.94 864.597 1437.94 865.913C1437.94 867.229 1436.88 868.296 1435.56 868.296Z" fill="white"/>
<path d="M1325.81 778.391C1325.07 778.391 1324.48 777.797 1324.48 777.064C1324.48 776.331 1325.07 775.737 1325.81 775.737C1326.54 775.737 1327.13 776.331 1327.13 777.064C1327.13 777.797 1326.54 778.391 1325.81 778.391Z" fill="white"/>
<path d="M1260.63 820.31C1259.9 820.31 1259.3 819.716 1259.3 818.984C1259.3 818.251 1259.9 817.656 1260.63 817.656C1261.36 817.656 1261.96 818.251 1261.96 818.984C1261.96 819.716 1261.36 820.31 1260.63 820.31Z" fill="white"/>
<path d="M1304.32 951.486C1303.58 951.486 1302.99 950.892 1302.99 950.159C1302.99 949.426 1303.58 948.832 1304.32 948.832C1305.05 948.832 1305.64 949.426 1305.64 950.159C1305.64 950.892 1305.05 951.486 1304.32 951.486Z" fill="white"/>
<path d="M1168.09 891.07C1167.36 891.07 1166.76 890.476 1166.76 889.743C1166.76 889.011 1167.36 888.417 1168.09 888.417C1168.82 888.417 1169.41 889.011 1169.41 889.743C1169.41 890.476 1168.82 891.07 1168.09 891.07Z" fill="white"/>
<path d="M1332.9 942.576C1332.16 942.576 1331.57 941.982 1331.57 941.25C1331.57 940.517 1332.16 939.923 1332.9 939.923C1333.63 939.923 1334.22 940.517 1334.22 941.25C1334.22 941.982 1333.63 942.576 1332.9 942.576Z" fill="white"/>
<path d="M968.553 927.872C968.553 928.82 968.834 929.747 969.361 930.535C969.887 931.323 970.635 931.937 971.511 932.3C972.386 932.663 973.349 932.758 974.279 932.573C975.208 932.388 976.062 931.931 976.732 931.261C977.402 930.591 977.858 929.737 978.043 928.807C978.228 927.877 978.133 926.913 977.77 926.038C977.408 925.162 976.794 924.413 976.006 923.887C975.218 923.36 974.292 923.079 973.344 923.079C972.074 923.079 970.855 923.584 969.957 924.483C969.058 925.381 968.553 926.601 968.553 927.872Z" fill="white"/>
<path d="M1122.83 882.459C1122.83 883.408 1123.1 884.337 1123.63 885.129C1124.15 885.921 1124.9 886.54 1125.77 886.907C1126.65 887.273 1127.61 887.372 1128.54 887.19C1129.47 887.008 1130.33 886.554 1131 885.885C1131.67 885.216 1132.13 884.361 1132.32 883.431C1132.51 882.5 1132.41 881.535 1132.05 880.658C1131.69 879.78 1131.08 879.03 1130.29 878.503C1129.5 877.975 1128.57 877.693 1127.62 877.693C1126.36 877.693 1125.14 878.194 1124.25 879.087C1123.35 879.98 1122.84 881.192 1122.83 882.459Z" fill="white"/>
<path d="M1014.92 766.719C1014.92 767.189 1015.07 767.647 1015.33 768.036C1015.6 768.424 1015.97 768.725 1016.41 768.901C1016.84 769.078 1017.32 769.121 1017.78 769.026C1018.24 768.931 1018.66 768.702 1018.99 768.367C1019.32 768.033 1019.55 767.609 1019.64 767.147C1019.73 766.685 1019.68 766.208 1019.5 765.774C1019.32 765.34 1019.01 764.969 1018.62 764.709C1018.23 764.448 1017.77 764.309 1017.3 764.309C1016.98 764.305 1016.67 764.365 1016.38 764.485C1016.09 764.605 1015.82 764.783 1015.6 765.008C1015.38 765.233 1015.2 765.5 1015.08 765.794C1014.97 766.088 1014.91 766.403 1014.92 766.719Z" fill="white"/>
<path d="M773.998 889.96C773.993 890.439 774.13 890.909 774.393 891.309C774.655 891.71 775.031 892.023 775.473 892.209C775.914 892.394 776.4 892.444 776.87 892.352C777.34 892.26 777.772 892.03 778.11 891.691C778.449 891.353 778.679 890.921 778.771 890.451C778.863 889.981 778.813 889.494 778.627 889.052C778.442 888.611 778.129 888.235 777.728 887.972C777.328 887.709 776.859 887.572 776.38 887.577C775.748 887.577 775.142 887.828 774.696 888.275C774.249 888.722 773.998 889.328 773.998 889.96Z" fill="white"/>
<path d="M997.217 879.507C996.485 879.507 995.891 878.913 995.891 878.18C995.891 877.448 996.485 876.854 997.217 876.854C997.95 876.854 998.543 877.448 998.543 878.18C998.543 878.913 997.95 879.507 997.217 879.507Z" fill="white"/>
<path d="M907.572 824.751C906.84 824.751 906.246 824.157 906.246 823.424C906.246 822.691 906.84 822.097 907.572 822.097C908.305 822.097 908.898 822.691 908.898 823.424C908.898 824.157 908.305 824.751 907.572 824.751Z" fill="white"/>
<path d="M1072.87 965.784C1071.55 965.784 1070.49 964.717 1070.49 963.401C1070.49 962.085 1071.55 961.018 1072.87 961.018C1074.18 961.018 1075.25 962.085 1075.25 963.401C1075.25 964.717 1074.18 965.784 1072.87 965.784Z" fill="white"/>
<path d="M1105.24 1005.46C1105.25 1005.93 1105.39 1006.38 1105.65 1006.77C1105.92 1007.16 1106.29 1007.46 1106.73 1007.64C1107.16 1007.81 1107.64 1007.86 1108.1 1007.76C1108.56 1007.67 1108.98 1007.44 1109.32 1007.1C1109.65 1006.77 1109.87 1006.35 1109.96 1005.88C1110.05 1005.42 1110 1004.95 1109.82 1004.51C1109.64 1004.08 1109.33 1003.71 1108.94 1003.45C1108.55 1003.19 1108.09 1003.05 1107.62 1003.05C1107.31 1003.05 1106.99 1003.11 1106.7 1003.23C1106.41 1003.35 1106.15 1003.53 1105.93 1003.75C1105.71 1003.98 1105.53 1004.24 1105.41 1004.54C1105.3 1004.83 1105.24 1005.14 1105.24 1005.46Z" fill="white"/>
<path d="M1224.28 888.443C1222.96 888.443 1221.9 887.376 1221.9 886.06C1221.9 884.744 1222.96 883.677 1224.28 883.677C1225.59 883.677 1226.66 884.744 1226.66 886.06C1226.66 887.376 1225.59 888.443 1224.28 888.443Z" fill="white"/>
<path d="M767.096 327.292C766.365 328.808 842.287 366.829 843.776 367.56C844.486 367.864 845.286 367.885 846.012 367.619C846.738 367.353 847.334 366.819 847.68 366.128C848.025 365.436 848.094 364.638 847.871 363.898C847.649 363.157 847.152 362.53 846.482 362.144C844.777 361.385 767.799 325.802 767.096 327.292Z" fill="url(#paint0_linear)"/>
<path d="M428.654 513.548C427.951 515.064 476.887 545.556 478.376 546.288C479.086 546.592 479.886 546.613 480.612 546.347C481.337 546.081 481.934 545.547 482.28 544.856C482.625 544.164 482.694 543.366 482.471 542.626C482.249 541.885 481.752 541.258 481.082 540.872C479.377 540.113 429.385 512.031 428.654 513.548Z" fill="url(#paint1_linear)"/>
</g>
<defs>
<linearGradient id="paint0_linear" x1="855.543" y1="364.112" x2="774.921" y2="325.612" gradientUnits="userSpaceOnUse">
<stop stop-color="white"/>
<stop offset="0.11" stop-color="white" stop-opacity="0.79"/>
<stop offset="0.24" stop-color="white" stop-opacity="0.58"/>
<stop offset="0.37" stop-color="white" stop-opacity="0.4"/>
<stop offset="0.5" stop-color="white" stop-opacity="0.26"/>
<stop offset="0.63" stop-color="white" stop-opacity="0.14"/>
<stop offset="0.75" stop-color="white" stop-opacity="0.06"/>
<stop offset="0.88" stop-color="white" stop-opacity="0.02"/>
<stop offset="1" stop-color="white" stop-opacity="0"/>
</linearGradient>
<linearGradient id="paint1_linear" x1="-6515.12" y1="30920.9" x2="-7750.65" y2="30920.9" gradientUnits="userSpaceOnUse">
<stop stop-color="white"/>
<stop offset="0.11" stop-color="white" stop-opacity="0.79"/>
<stop offset="0.24" stop-color="white" stop-opacity="0.58"/>
<stop offset="0.37" stop-color="white" stop-opacity="0.4"/>
<stop offset="0.5" stop-color="white" stop-opacity="0.26"/>
<stop offset="0.63" stop-color="white" stop-opacity="0.14"/>
<stop offset="0.75" stop-color="white" stop-opacity="0.06"/>
<stop offset="0.88" stop-color="white" stop-opacity="0.02"/>
<stop offset="1" stop-color="white" stop-opacity="0"/>
</linearGradient>
<clipPath id="clip0">
<rect width="1920" height="1080" fill="white" transform="matrix(-1 0 0 1 1920 0)"/>
</clipPath>
</defs>
</svg>
